<svg viewBox="0 0 560 205" xmlns="http://www.w3.org/2000/svg" fill-rule="evenodd" clip-rule="evenodd" stroke-linejoin="round" stroke-miterlimit="2"><title>Heuristic Industries</title><g fill="#fff"><path d="M41.667 42.119c1.721 2.712 2.58 6.819 2.58 12.322V92.11h18.319V51.086c0-4.126-.367-7.888-1.096-11.288-.732-3.397-2-6.275-3.805-8.644-1.808-2.363-4.281-4.213-7.418-5.545-3.141-1.332-7.16-2.001-12.063-2.001-3.44 0-6.965.884-10.578 2.644-3.611 1.765-6.579 4.582-8.901 8.449h-.387V0H0v92.11h18.318V57.15c0-6.794 1.116-11.676 3.354-14.644 2.235-2.964 5.848-4.45 10.837-4.45 4.386 0 7.437 1.355 9.158 4.063M88.724 47.216c.471-1.633 1.29-3.179 2.451-4.645 1.16-1.46 2.708-2.686 4.643-3.676 1.936-.986 4.364-1.482 7.289-1.482 4.471 0 7.805 1.204 9.998 3.611 2.194 2.408 3.718 5.936 4.583 10.578H87.885c.085-1.29.365-2.75.839-4.386m34.253 41.411c5.327-3.438 9.284-9.159 11.864-17.157h-16.122c-.602 2.062-2.241 4.021-4.905 5.869-2.665 1.85-5.849 2.772-9.545 2.772-5.161 0-9.118-1.332-11.868-3.999-2.755-2.663-4.258-6.966-4.516-12.898H136c.346-5.161-.083-10.107-1.287-14.836-1.203-4.729-3.163-8.945-5.871-12.642-2.709-3.698-6.173-6.644-10.386-8.837-4.211-2.193-9.156-3.291-14.832-3.291-5.076 0-9.698.903-13.869 2.709-4.172 1.805-7.762 4.28-10.771 7.418-3.011 3.14-5.334 6.86-6.967 11.16-1.634 4.3-2.45 8.945-2.45 13.933 0 5.157.793 9.889 2.386 14.189 1.591 4.302 3.848 7.997 6.773 11.093 2.923 3.099 6.492 5.484 10.707 7.161 4.213 1.678 8.944 2.517 14.191 2.517 7.566 0 14.019-1.719 19.353-5.161" fill-rule="nonzero"/><path d="M232.322 0h18.319v15.095h-18.319z"/><path d="M316.789 81.724c1.761-2.968 2.644-6.643 2.644-11.029 0-3.096-.603-5.695-1.805-7.805a16.582 16.582 0 00-4.774-5.289c-1.978-1.418-4.238-2.558-6.774-3.419a77.772 77.772 0 00-7.805-2.193 305.248 305.248 0 00-7.611-1.678c-2.493-.515-4.709-1.095-6.642-1.741-1.937-.644-3.507-1.483-4.71-2.517-1.203-1.031-1.805-2.362-1.805-3.998 0-1.374.342-2.472 1.031-3.288a6.764 6.764 0 012.516-1.87c.989-.432 2.084-.711 3.291-.839a31.056 31.056 0 013.352-.195c3.269 0 6.104.624 8.516 1.87 2.408 1.248 3.739 3.637 3.999 7.161h17.416c-.346-4.13-1.399-7.545-3.163-10.257-1.761-2.709-3.977-4.879-6.644-6.515-2.666-1.633-5.698-2.792-9.092-3.483a53.013 53.013 0 00-10.516-1.031c-3.612 0-7.14.323-10.578.967-3.439.646-6.538 1.764-9.288 3.355-2.753 1.591-4.965 3.761-6.643 6.515-1.677 2.753-2.516 6.278-2.516 10.577 0 2.926.601 5.398 1.805 7.418a15.681 15.681 0 004.774 5.033c1.979 1.332 4.236 2.407 6.774 3.224a89.528 89.528 0 007.801 2.129c6.539 1.376 11.632 2.753 15.288 4.127 3.657 1.376 5.484 3.441 5.484 6.191 0 1.636-.387 2.99-1.162 4.066a8.774 8.774 0 01-2.901 2.58c-1.161.644-2.451 1.118-3.87 1.419a19.6 19.6 0 01-4.062.451c-1.809 0-3.551-.214-5.225-.647-1.678-.429-3.163-1.095-4.454-1.997-1.29-.903-2.343-2.065-3.159-3.484-.817-1.418-1.227-3.118-1.227-5.096h-17.412c.168 4.472 1.181 8.192 3.027 11.16 1.851 2.965 4.214 5.353 7.099 7.159 2.877 1.805 6.169 3.095 9.867 3.87a55.181 55.181 0 0011.352 1.162c3.783 0 7.504-.368 11.161-1.098 3.652-.73 6.902-1.998 9.738-3.806 2.84-1.806 5.139-4.191 6.903-7.159M330.884 77.015c0 3.355.56 6.063 1.677 8.128 1.118 2.065 2.645 3.657 4.579 4.774 1.937 1.117 4.171 1.869 6.71 2.257 2.535.387 5.225.579 8.061.579 1.806 0 3.656-.044 5.548-.128 1.889-.086 3.612-.259 5.161-.515V77.918c-.861.173-1.764.304-2.708.387-.948.086-1.937.128-2.968.128-3.096 0-5.161-.515-6.192-1.546-1.034-1.031-1.549-3.096-1.549-6.192V37.669h20.417V92.11h18.319V24.255h-38.736V5.42h-18.319v18.835h-11.093v13.414h11.093v39.346z" fill-rule="nonzero"/><path d="M369.62 0h18.319v15.095H369.62z"/><path d="M414.871 91.271c4.168 1.677 8.75 2.516 13.738 2.516 8.858 0 16.125-2.324 21.802-6.966 5.676-4.645 9.114-11.397 10.321-20.256h-17.675c-.602 4.13-2.084 7.418-4.45 9.87-2.366 2.453-5.74 3.676-10.126 3.676-2.84 0-5.248-.644-7.226-1.934a14.428 14.428 0 01-4.707-4.966c-1.162-2.02-2-4.277-2.516-6.774a36.291 36.291 0 01-.775-7.354c0-2.494.26-5.007.775-7.546.516-2.535 1.396-4.856 2.645-6.966 1.245-2.106 2.859-3.826 4.837-5.161 1.979-1.332 4.428-1.997 7.354-1.997 7.824 0 12.338 3.825 13.545 11.48h17.932c-.259-4.299-1.29-8.02-3.096-11.16a25.262 25.262 0 00-7.031-7.869c-2.884-2.107-6.15-3.676-9.806-4.707-3.656-1.034-7.462-1.549-11.416-1.549-5.417 0-10.235.903-14.448 2.708-4.213 1.806-7.786 4.322-10.706 7.549-2.926 3.224-5.142 7.053-6.646 11.481-1.505 4.431-2.257 9.223-2.257 14.384 0 4.988.816 9.566 2.452 13.738 1.633 4.171 3.912 7.763 6.835 10.772 2.923 3.01 6.47 5.353 10.645 7.031" fill-rule="nonzero"/><path d="M0 134.775h18.319v67.855H0zM0 110.52h18.319v15.095H0z"/><path d="M83.984 141.674c-1.806-2.363-4.28-4.213-7.418-5.545-3.14-1.332-7.161-2.001-12.063-2.001-3.871 0-7.655.884-11.352 2.645-3.698 1.764-6.708 4.581-9.028 8.448h-.388v-10.446H26.319v67.855h18.319v-34.96c0-6.793 1.117-11.676 3.352-14.644 2.238-2.964 5.849-4.45 10.837-4.45 4.386 0 7.44 1.355 9.159 4.063 1.719 2.712 2.581 6.819 2.581 12.322v37.669h18.319v-41.024c0-4.126-.369-7.888-1.099-11.288-.73-3.397-1.997-6.275-3.803-8.644M145.294 177.086c-.515 2.58-1.377 4.882-2.577 6.902a13.738 13.738 0 01-4.841 4.838c-2.02 1.207-4.536 1.805-7.546 1.805-2.836 0-5.269-.621-7.286-1.869a16.067 16.067 0 01-5.033-4.902c-1.335-2.02-2.302-4.322-2.904-6.902a33.969 33.969 0 01-.902-7.741c0-2.75.278-5.395.838-7.933.561-2.536 1.463-4.793 2.709-6.772 1.248-1.978 2.904-3.569 4.969-4.773 2.064-1.204 4.6-1.806 7.609-1.806 3.01 0 5.504.602 7.482 1.806a14.863 14.863 0 014.838 4.709c1.245 1.934 2.129 4.172 2.644 6.707.519 2.539.775 5.184.775 7.934 0 2.753-.256 5.417-.775 7.997m.131-33.023h-.259c-2.065-3.269-4.882-5.74-8.449-7.418a26.22 26.22 0 00-11.288-2.516c-4.902 0-9.204.967-12.902 2.903-3.698 1.934-6.771 4.495-9.223 7.674-2.45 3.182-4.3 6.861-5.545 11.033-1.249 4.171-1.873 8.493-1.873 12.962 0 4.646.624 9.118 1.873 13.418 1.245 4.299 3.095 8.106 5.545 11.416 2.452 3.311 5.567 5.936 9.354 7.869 3.784 1.934 8.17 2.904 13.158 2.904 4.386 0 8.321-.797 11.804-2.388 3.483-1.591 6.297-4.191 8.449-7.805h.259v8.516h17.416v-92.11h-18.319v33.542zM215.991 170.894c0 6.797-1.117 11.676-3.355 14.644-2.235 2.964-5.849 4.45-10.834 4.45-4.386 0-7.44-1.355-9.159-4.063-1.723-2.712-2.581-6.816-2.581-12.323v-38.827h-18.319v42.183c0 4.126.365 7.891 1.095 11.288.73 3.397 2.001 6.278 3.807 8.644 1.805 2.366 4.277 4.191 7.418 5.481 3.137 1.29 7.158 1.937 12.063 1.937 3.87 0 7.651-.861 11.352-2.581 3.695-1.719 6.707-4.517 9.028-8.384h.388v9.287h17.416v-67.855h-18.319v36.119z" fill-rule="nonzero"/><path d="M402.162 110.52h18.319v15.095h-18.319z"/><path d="M445.796 162.122c.086-1.29.365-2.75.839-4.386.474-1.633 1.29-3.179 2.452-4.645 1.162-1.46 2.709-2.687 4.646-3.676 1.933-.986 4.363-1.482 7.286-1.482 4.473 0 7.805 1.204 9.998 3.611 2.193 2.408 3.72 5.936 4.581 10.578h-29.802zm40.96-15.867c-2.709-3.697-6.173-6.643-10.386-8.836-4.213-2.193-9.159-3.291-14.835-3.291-5.075 0-9.698.903-13.866 2.709-4.175 1.805-7.764 4.28-10.773 7.418-3.013 3.14-5.334 6.86-6.966 11.16-1.633 4.299-2.45 8.945-2.45 13.933 0 5.157.794 9.889 2.386 14.189 1.591 4.302 3.848 7.997 6.771 11.093 2.922 3.099 6.492 5.484 10.709 7.161 4.213 1.678 8.944 2.517 14.189 2.517 7.568 0 14.019-1.719 19.352-5.161 5.331-3.438 9.288-9.16 11.868-17.157h-16.126c-.602 2.062-2.238 4.021-4.901 5.869-2.667 1.85-5.849 2.772-9.547 2.772-5.161 0-9.118-1.332-11.868-3.999-2.753-2.663-4.258-6.966-4.517-12.898h48.118c.343-5.161-.086-10.107-1.287-14.836-1.207-4.729-3.163-8.945-5.871-12.643M557.569 173.41a16.591 16.591 0 00-4.773-5.289c-1.979-1.418-4.239-2.558-6.775-3.419a77.698 77.698 0 00-7.805-2.193 306.178 306.178 0 00-7.61-1.678c-2.494-.515-4.709-1.095-6.643-1.741-1.937-.644-3.506-1.482-4.709-2.517-1.204-1.03-1.806-2.362-1.806-3.998 0-1.374.343-2.472 1.031-3.288a6.775 6.775 0 012.516-1.87c.99-.432 2.084-.71 3.292-.839 1.2-.131 2.321-.195 3.351-.195 3.269 0 6.106.624 8.516 1.87 2.408 1.248 3.739 3.637 3.999 7.162h17.416c-.346-4.13-1.399-7.546-3.163-10.258-1.761-2.708-3.976-4.879-6.643-6.515-2.667-1.633-5.699-2.792-9.092-3.483a53.105 53.105 0 00-10.517-1.031c-3.612 0-7.139.323-10.578.967-3.438.646-6.537 1.764-9.287 3.355-2.754 1.591-4.966 3.762-6.643 6.515-1.678 2.753-2.517 6.278-2.517 10.578 0 2.926.602 5.397 1.806 7.417a15.678 15.678 0 004.773 5.033c1.979 1.332 4.236 2.408 6.775 3.224a89.357 89.357 0 007.802 2.129c6.537 1.376 11.63 2.753 15.287 4.127 3.656 1.376 5.484 3.441 5.484 6.191 0 1.636-.388 2.99-1.163 4.066a8.794 8.794 0 01-2.9 2.581c-1.162.643-2.452 1.117-3.871 1.418a19.592 19.592 0 01-4.062.451 20.83 20.83 0 01-5.225-.646c-1.678-.429-3.163-1.095-4.453-1.998-1.29-.903-2.344-2.065-3.16-3.483-.669-1.163-1.05-2.524-1.171-4.063h-17.403c.278 4.011 1.262 7.392 2.963 10.126 1.851 2.965 4.214 5.353 7.098 7.159 2.878 1.805 6.169 3.095 9.867 3.87a55.198 55.198 0 0011.353 1.162c3.784 0 7.504-.368 11.16-1.098 3.653-.73 6.902-1.997 9.739-3.806 2.839-1.806 5.138-4.191 6.902-7.159 1.761-2.968 2.644-6.643 2.644-11.029 0-3.096-.601-5.695-1.805-7.805M420.481 134.775h-29.376c-.893 0-1.786.109-2.636.38l-.014.004a24.703 24.703 0 00-6.064 2.904 22.917 22.917 0 00-5.032 4.514 22.574 22.574 0 00-3.484 5.743h-.256v-13.545h-41.833v-18.834h-18.319v18.834h-11.093v13.414h11.093v39.346c0 3.355.56 6.064 1.678 8.129 1.117 2.065 2.644 3.656 4.578 4.773 1.937 1.118 4.171 1.87 6.71 2.257 2.536.388 5.225.58 8.062.58 1.805 0 3.656-.045 5.548-.128 1.889-.087 3.611-.26 5.161-.516v-14.192a24.8 24.8 0 01-2.709.387c-.948.087-1.937.129-2.968.129-3.096 0-5.161-.516-6.191-1.547-1.035-1.031-1.55-3.096-1.55-6.191v-33.027h24.417v54.441h18.319v-30.058c0-3.01.301-5.805.903-8.385.602-2.58 1.613-4.838 3.032-6.774 1.418-1.934 3.288-3.461 5.612-4.579 2.321-1.117 5.157-1.677 8.513-1.677h9.58v51.473h18.319v-67.855zM295.523 168.122c-1.979-1.418-4.239-2.558-6.774-3.419a77.791 77.791 0 00-7.806-2.193 307.114 307.114 0 00-7.609-1.678c-2.495-.515-4.71-1.095-6.644-1.741-1.937-.644-3.505-1.483-4.709-2.517-1.204-1.031-1.806-2.362-1.806-3.998 0-1.374.343-2.472 1.031-3.288a6.768 6.768 0 012.517-1.87c.989-.432 2.084-.711 3.291-.839 1.2-.131 2.321-.195 3.352-.195 3.268 0 6.105.624 8.516 1.87 2.407 1.248 3.739 3.637 3.998 7.161h17.416c-.346-4.13-1.399-7.546-3.163-10.257-1.761-2.709-3.976-4.879-6.643-6.515-2.667-1.633-5.698-2.792-9.092-3.483a53.097 53.097 0 00-10.517-1.031c-3.611 0-7.139.323-10.577.967-3.439.646-6.538 1.764-9.288 3.355-2.753 1.591-4.965 3.761-6.643 6.515-1.678 2.753-2.517 6.278-2.517 10.577 0 2.927.603 5.398 1.806 7.418a15.67 15.67 0 004.774 5.033c1.978 1.332 4.235 2.407 6.774 3.224a89.357 89.357 0 007.802 2.129c6.537 1.376 11.631 2.753 15.287 4.126 3.656 1.377 5.484 3.442 5.484 6.192 0 1.636-.387 2.99-1.162 4.066a8.793 8.793 0 01-2.901 2.58c-1.162.644-2.452 1.118-3.87 1.419a19.601 19.601 0 01-4.063.451c-1.809 0-3.55-.215-5.225-.647-1.677-.429-3.163-1.095-4.453-1.997-1.29-.903-2.343-2.065-3.16-3.484-.669-1.162-1.049-2.524-1.17-4.062h-17.404c.279 4.011 1.262 7.392 2.964 10.126 1.85 2.964 4.213 5.353 7.098 7.159 2.878 1.805 6.169 3.095 9.867 3.87a55.181 55.181 0 0011.352 1.162c3.784 0 7.504-.368 11.16-1.098 3.653-.73 6.903-1.998 9.739-3.807 2.84-1.805 5.138-4.19 6.903-7.158 1.76-2.968 2.644-6.643 2.644-11.029 0-3.096-.602-5.695-1.806-7.805a16.591 16.591 0 00-4.773-5.289M250.641 24.255h-29.376c-.893 0-1.786.109-2.636.38l-.014.004a24.74 24.74 0 00-6.064 2.904 22.917 22.917 0 00-5.032 4.514 22.574 22.574 0 00-3.484 5.743h-.255V24.255h-17.416v36.119c0 6.797-1.118 11.676-3.356 14.644-2.234 2.964-5.849 4.45-10.833 4.45-4.387 0-7.441-1.355-9.16-4.063-1.722-2.712-2.58-6.816-2.58-12.322V24.255h-18.319v42.183c0 4.126.365 7.891 1.095 11.288.73 3.397 2.001 6.278 3.806 8.644 1.806 2.366 4.277 4.191 7.418 5.481 3.137 1.29 7.158 1.937 12.063 1.937 3.871 0 7.652-.861 11.353-2.581 3.43-1.596 6.265-4.135 8.513-7.585v8.488h18.318V62.052c0-3.01.301-5.805.903-8.385.602-2.58 1.613-4.838 3.032-6.774 1.418-1.934 3.288-3.461 5.612-4.579 2.321-1.117 5.157-1.677 8.513-1.677h9.58V92.11h18.319V24.255z" fill-rule="nonzero"/></g></svg>