<svg xmlns="http://www.w3.org/2000/svg" viewBox="0 0 567.43 149.48"><defs><style>.cls-1{fill:#f8f7f7;}</style></defs><g id="Layer_2" data-name="Layer 2"><g id="Layer_2-2" data-name="Layer 2"><polygon class="cls-1" points="199.93 63.57 211.54 63.57 211.54 2.71 199.93 2.71 199.93 25.6 179.42 25.6 179.42 2.71 167.81 2.71 167.81 63.57 179.42 63.57 179.42 36.96 199.93 36.96 199.93 63.57"/><path class="cls-1" d="M269.06,54.85l-9.49-4.5a14.59,14.59,0,0,1-11.19,4.41c-6.44,0-11.53-3.73-12.63-10.43H272c0-1,.08-1.52.08-2.54,0-14.24-9.66-24.42-23.9-24.42-14.49,0-23.39,11.37-23.39,23.66,0,13.22,9.23,23.73,23.56,23.73C257.87,64.76,264.23,61.71,269.06,54.85ZM248.38,27c6,0,10.85,3.22,12.38,8.47h-24.5C238.46,29.75,242.78,27,248.38,27Z"/><path class="cls-1" d="M317.27,59c4.75-5.25,5.25-11.35,5.25-19.66V18.56H311.25v24c0,7.63-2.46,11.79-8.47,11.79s-8.49-4.25-8.49-12.29V18.56H283v20.6a50.1,50.1,0,0,0,.42,9.5c1.78,10.51,8.48,16,19.33,16C309.05,64.67,313.71,63,317.27,59Z"/><path class="cls-1" d="M356.1,17.37c-3.73,0-7.37,2.21-9.49,6.87V18.56h-9.75v45h11.28V45.35c0-2.46,0-5.25.08-7.71.25-6.62,2.8-10.34,6-10.34a7.82,7.82,0,0,1,3.3.93L361,18.56A10.58,10.58,0,0,0,356.1,17.37Z"/><path class="cls-1" d="M376.21,14.66a7.2,7.2,0,0,0,7.2-7.2A7.31,7.31,0,0,0,376.21,0,7,7,0,0,0,369,6.87C369,11,372.05,14.66,376.21,14.66Z"/><rect class="cls-1" x="370.61" y="18.56" width="11.28" height="45.01"/><path class="cls-1" d="M414.68,36.28l-4.15-2.12c-2.46-1.27-4.07-2-4.07-3.73s1.78-2.71,4.07-2.71c2.71,0,5.25,1.61,7.8,4.15l6.95-7a18.31,18.31,0,0,0-14.84-7.47c-8.64,0-14.57,5.94-14.57,13,0,5.67,3.64,10.08,10.85,13.73l3.81,2c3.14,1.61,5,3,5,5s-2.2,3.64-5,3.64c-3,0-6.78-2.2-9.41-5.25l-6.95,7.63a19,19,0,0,0,15.77,7.71c9.83,0,16.18-6,16.18-14.07C426.12,44,422.14,40.1,414.68,36.28Z"/><polygon class="cls-1" points="451.86 1.95 440.6 1.95 440.6 18.56 434.83 18.56 434.83 28.23 440.6 28.23 440.6 63.57 451.86 63.57 451.86 28.23 458.56 28.23 458.56 18.56 451.86 18.56 451.86 1.95"/><rect class="cls-1" x="467.78" y="18.56" width="11.28" height="45.01"/><path class="cls-1" d="M473.38,0a7,7,0,0,0-7.2,6.87c0,4.15,3.05,7.79,7.2,7.79a7.2,7.2,0,0,0,7.2-7.2A7.3,7.3,0,0,0,473.38,0Z"/><path class="cls-1" d="M516.85,27.72c4.92,0,8.06,1.69,11.28,5.08l9.4-5.17C533,21,525.59,17.37,516.77,17.37c-14.92,0-25.43,10.35-25.43,23.83,0,13.14,9.92,23.56,25.26,23.56,8.81,0,15.59-3.14,20.43-9.41l-8.9-6.1c-2.8,3.47-6.79,5.17-11.79,5.17C508,54.42,502.7,49,502.7,41.37,502.7,33.57,508.21,27.72,516.85,27.72Z"/><rect class="cls-1" x="167.3" y="87.43" width="6.1" height="60.86"/><path class="cls-1" d="M213.23,102.1c-6.62,0-12.21,3.13-16.87,9.24v-8.06h-5.77v45h5.77v-18.9c0-7.12.51-11.52,3.9-15.93a14.42,14.42,0,0,1,11.86-6.11c8.74,0,12,5.85,12,16.45v24.49h5.76V123C229.92,108.88,223.06,102.1,213.23,102.1Z"/><path class="cls-1" d="M285.76,111.51a21.28,21.28,0,0,0-18-9.41,23.38,23.38,0,0,0-23.23,23.56c0,12.8,9.92,23.73,23.05,23.73,7,0,13.23-2.88,18.15-8.81v7.71h5.76V85.91h-5.76Zm-17.55,32.63c-10.09,0-17.72-8.56-17.72-18.31a17.87,17.87,0,0,1,17.8-18.14c10.09,0,17.8,7.88,17.8,18.31A17.67,17.67,0,0,1,268.21,144.14Z"/><path class="cls-1" d="M341.49,125.23c0,6.45.08,10.77-3.47,14.59a14.06,14.06,0,0,1-10.17,4c-5.68,0-10.34-2.63-12.47-7.2-1.27-2.71-1.27-6.61-1.27-11.37v-22H308v23.31c0,15.18,6.95,22.8,19.84,22.8s19.75-7.62,19.75-22.8V103.28h-6.11Z"/><path class="cls-1" d="M374.35,107.69c3.65,0,6.36,1.69,9.07,4.32l3.73-3.81c-3.81-3.73-7.54-6.1-12.46-6.1-6.87,0-12.38,4.83-12.38,12,0,7.88,5.26,10.34,15.6,16.1a7.24,7.24,0,0,1,3.73,6.28c0,4.23-3.9,7.45-8.31,7.45-3.39,0-6.52-1.77-9.41-5L360.28,143a17,17,0,0,0,13.31,6.44,13.23,13.23,0,0,0,13.56-13.31c0-8.13-5.76-10.42-16.1-16.44a7.39,7.39,0,0,1-3.48-6C367.57,110.32,370.62,107.69,374.35,107.69Z"/><polygon class="cls-1" points="412.56 86.5 406.79 86.5 406.79 103.28 398.83 103.28 398.83 108.37 406.79 108.37 406.79 148.29 412.56 148.29 412.56 108.37 421.8 108.37 421.8 103.28 412.56 103.28 412.56 86.5"/><path class="cls-1" d="M438.39,109.81v-6.53h-6.1v45h6.1V131.17c0-6.1.17-10.76.93-13.65,1.7-6.18,5.51-9.83,9.75-9.83a6.84,6.84,0,0,1,3.05.85l3.05-4.92A9.08,9.08,0,0,0,450,102.1C445.43,102.1,441.78,104.89,438.39,109.81Z"/><path class="cls-1" d="M466.35,84.72a4.74,4.74,0,0,0-4.75,4.74,4.82,4.82,0,0,0,4.75,4.84,4.89,4.89,0,0,0,4.83-4.84A4.81,4.81,0,0,0,466.35,84.72Z"/><rect class="cls-1" x="463.55" y="103.28" width="5.76" height="45.01"/><path class="cls-1" d="M506.52,102.1c-14.08,0-23.15,11.52-23.15,23.81,0,12,8.57,23.48,23.48,23.48,9.84,0,16.87-4.49,21.45-13.47l-4.83-2.54c-3.31,5.42-7.8,10.76-17.21,10.76-9.66,0-16.7-7.54-16.95-17.88h40.52C529.66,111.34,519.32,102.1,506.52,102.1Zm.08,5.59c7.8,0,14.49,4.15,16.87,13.48H489.9C492.53,112,498.55,107.69,506.6,107.69Z"/><path class="cls-1" d="M551.32,119.73a7.41,7.41,0,0,1-3.47-6c0-3.39,3-6,6.78-6s6.36,1.69,9.07,4.32l3.73-3.81c-3.82-3.73-7.55-6.1-12.46-6.1-6.87,0-12.38,4.83-12.38,12,0,7.88,5.26,10.34,15.6,16.1a7.26,7.26,0,0,1,3.73,6.28c0,4.23-3.9,7.45-8.31,7.45-3.39,0-6.53-1.77-9.41-5L540.56,143a17,17,0,0,0,13.31,6.44,13.22,13.22,0,0,0,13.56-13.31C567.43,128,561.66,125.75,551.32,119.73Z"/><path class="cls-1" d="M78.28,50.49H40.44a.79.79,0,0,1-.78-.78V2.2H0L.37,148.49H39.62V90.09a2.5,2.5,0,0,1,2.5-2.5H78.35v61.89h39.22q0-34.5.07-69H42.12a9.63,9.63,0,0,0-9.62,9.61v51.28H28.61V9.35l3.94,0V49.71a7.9,7.9,0,0,0,7.89,7.89h77.2V2.2H78.28ZM11,141.37H7.45L7.11,9.51l3.9,0h0Zm7.11,0H14.39V9.45h0l3.72,0h0Zm7.1,0H21.5V9.41h0l3.72,0Z"/></g></g></svg>