<?xml version="1.0" encoding="UTF-8" standalone="no"?>
<!DOCTYPE svg PUBLIC "-//W3C//DTD SVG 1.1//EN" "http://www.w3.org/Graphics/SVG/1.1/DTD/svg11.dtd">
<svg width="100%" height="100%" viewBox="0 0 272 308" version="1.1" xmlns="http://www.w3.org/2000/svg" xmlns:xlink="http://www.w3.org/1999/xlink" xml:space="preserve" xmlns:serif="http://www.serif.com/" style="fill-rule:evenodd;clip-rule:evenodd;stroke-linejoin:round;stroke-miterlimit:2;">
    <g id="logo" transform="matrix(1,0,0,1,-80.3129,-257.846)">
        <g transform="matrix(1,0,0,1,98.6319,349.957)">
            <path d="M0,-92.111L0,-57.409L0.387,-57.409C2.709,-61.278 5.677,-64.095 9.289,-65.858C12.901,-67.62 16.427,-68.503 19.867,-68.503C24.77,-68.503 28.789,-67.835 31.929,-66.504C35.068,-65.169 37.541,-63.32 39.347,-60.956C41.153,-58.59 42.421,-55.709 43.153,-52.313C43.882,-48.914 44.249,-45.153 44.249,-41.025L44.249,0L25.93,0L25.93,-37.67C25.93,-43.174 25.07,-47.281 23.35,-49.99C21.629,-52.7 18.577,-54.054 14.191,-54.054C9.202,-54.054 5.59,-52.57 3.354,-49.603C1.117,-46.637 0,-41.754 0,-34.962L0,0L-18.319,0L-18.319,-92.111L0,-92.111Z" style="fill:currentColor;fill-rule:nonzero;"/>
        </g>
        <g transform="matrix(1,0,0,1,193.418,334.217)">
            <path d="M0,-35.346C-2.193,-37.754 -5.527,-38.958 -9.999,-38.958C-12.923,-38.958 -15.352,-38.462 -17.287,-37.476C-19.222,-36.485 -20.77,-35.26 -21.931,-33.798C-23.092,-32.335 -23.911,-30.787 -24.382,-29.154C-24.856,-27.52 -25.137,-26.058 -25.221,-24.769L4.58,-24.769C3.719,-29.413 2.193,-32.937 0,-35.346M-20.706,-0.256C-17.954,2.41 -13.997,3.742 -8.837,3.742C-5.14,3.742 -1.957,2.819 0.71,0.969C3.374,-0.88 5.009,-2.836 5.612,-4.902L21.737,-4.902C19.157,3.097 15.2,8.818 9.868,12.257C4.535,15.698 -1.915,17.417 -9.483,17.417C-14.729,17.417 -19.46,16.579 -23.673,14.901C-27.888,13.224 -31.457,10.837 -34.38,7.741C-37.305,4.645 -39.563,0.948 -41.153,-3.352C-42.746,-7.653 -43.54,-12.383 -43.54,-17.543C-43.54,-22.531 -42.723,-27.175 -41.089,-31.477C-39.456,-35.776 -37.134,-39.494 -34.122,-42.636C-31.113,-45.774 -27.523,-48.248 -23.35,-50.053C-19.18,-51.86 -14.558,-52.763 -9.483,-52.763C-3.806,-52.763 1.139,-51.665 5.354,-49.473C9.567,-47.28 13.029,-44.333 15.739,-40.636C18.448,-36.936 20.403,-32.722 21.609,-27.993C22.812,-23.262 23.241,-18.318 22.899,-13.158L-25.221,-13.158C-24.963,-7.223 -23.459,-2.921 -20.706,-0.256" style="fill:currentColor;fill-rule:nonzero;"/>
        </g>
        <g transform="matrix(1,0,0,1,267.582,284.938)">
            <path d="M0,65.019L0,55.731L-0.387,55.731C-2.709,59.6 -5.721,62.397 -9.417,64.116C-13.116,65.835 -16.9,66.696 -20.77,66.696C-25.672,66.696 -29.694,66.051 -32.832,64.76C-35.973,63.471 -38.444,61.645 -40.25,59.279C-42.056,56.914 -43.326,54.034 -44.056,50.635C-44.787,47.238 -45.153,43.475 -45.153,39.347L-45.153,-1.677L-26.834,-1.677L-26.834,35.993C-26.834,41.498 -25.975,45.604 -24.254,48.312C-22.534,51.023 -19.48,52.376 -15.094,52.376C-10.107,52.376 -6.495,50.892 -4.257,47.925C-2.022,44.959 -0.903,40.078 -0.903,33.284L-0.903,-1.677L17.416,-1.677L17.416,65.019L0,65.019Z" style="fill:currentColor;fill-rule:nonzero;"/>
        </g>
        <g transform="matrix(1,0,0,1,265.503,405.224)">
            <path d="M0,33.67C0.816,35.089 1.871,36.251 3.16,37.153C4.451,38.057 5.935,38.723 7.611,39.153C9.288,39.584 11.031,39.798 12.836,39.798C14.127,39.798 15.48,39.649 16.9,39.348C18.319,39.046 19.608,38.573 20.77,37.928C21.931,37.283 22.899,36.424 23.672,35.348C24.447,34.274 24.834,32.919 24.834,31.284C24.834,28.532 23.005,26.468 19.351,25.092C15.695,23.717 10.599,22.34 4.064,20.963C1.397,20.364 -1.206,19.653 -3.741,18.834C-6.278,18.019 -8.537,16.944 -10.514,15.61C-12.494,14.277 -14.084,12.6 -15.287,10.578C-16.493,8.558 -17.094,6.085 -17.094,3.161C-17.094,-1.139 -16.255,-4.665 -14.578,-7.417C-12.9,-10.17 -10.687,-12.341 -7.934,-13.933C-5.182,-15.523 -2.086,-16.641 1.355,-17.287C4.793,-17.932 8.32,-18.255 11.932,-18.255C15.544,-18.255 19.048,-17.91 22.447,-17.223C25.844,-16.533 28.876,-15.372 31.542,-13.74C34.207,-12.104 36.421,-9.933 38.186,-7.224C39.947,-4.516 41.001,-1.097 41.346,3.031L23.931,3.031C23.672,-0.494 22.339,-2.88 19.931,-4.128C17.522,-5.374 14.685,-5.998 11.416,-5.998C10.384,-5.998 9.266,-5.934 8.063,-5.805C6.857,-5.676 5.761,-5.396 4.773,-4.966C3.783,-4.535 2.945,-3.912 2.257,-3.096C1.568,-2.278 1.225,-1.182 1.225,0.194C1.225,1.828 1.826,3.161 3.032,4.193C4.235,5.225 5.805,6.063 7.74,6.708C9.675,7.354 11.889,7.934 14.384,8.45C16.878,8.966 19.415,9.526 21.995,10.127C24.66,10.73 27.262,11.461 29.8,12.321C32.336,13.18 34.594,14.319 36.573,15.738C38.551,17.158 40.142,18.922 41.346,21.029C42.549,23.136 43.153,25.737 43.153,28.833C43.153,33.22 42.27,36.896 40.509,39.864C38.744,42.829 36.445,45.217 33.606,47.023C30.767,48.829 27.521,50.099 23.866,50.828C20.209,51.558 16.49,51.925 12.707,51.925C8.836,51.925 5.052,51.539 1.355,50.764C-2.345,49.989 -5.634,48.7 -8.515,46.893C-11.397,45.088 -13.761,42.701 -15.61,39.733C-17.461,36.768 -18.469,33.047 -18.642,28.574L-1.225,28.574C-1.225,30.555 -0.819,32.252 0,33.67" style="fill:currentColor;fill-rule:nonzero;"/>
        </g>
        <g transform="matrix(1,0,0,1,0,237.236)">
            <rect x="262.582" y="233.835" width="18.319" height="15.094" style="fill:currentColor;"/>
        </g>
        <g transform="matrix(1,0,0,1,240.748,543.83)">
            <path d="M0,-47.345L0,-67.341L-18.319,-67.341L-18.319,-47.345L-29.412,-47.345L-29.412,-35.09L-18.319,-35.09L-18.319,4.257C-18.319,7.612 -17.76,10.321 -16.641,12.384C-15.524,14.448 -13.997,16.042 -12.061,17.158C-10.127,18.277 -7.891,19.028 -5.353,19.416C-2.817,19.803 -0.129,19.996 2.71,19.996C4.515,19.996 6.365,19.952 8.258,19.867C10.147,19.781 11.869,19.61 13.417,19.351L13.417,5.16C12.556,5.334 11.653,5.463 10.707,5.548C9.76,5.634 8.773,5.676 7.74,5.676C4.644,5.676 2.58,5.16 1.548,4.129C0.516,3.096 0,1.032 0,-2.064L0,-35.09L21.834,-35.09L21.834,19.351L40.153,19.351L40.153,-47.345L0,-47.345Z" style="fill:currentColor;fill-rule:nonzero;"/>
        </g>
        <g transform="matrix(1,0,0,1,320.438,551.054)">
            <path d="M0,-42.57C-2.925,-42.57 -5.375,-41.903 -7.353,-40.572C-9.332,-39.237 -10.944,-37.517 -12.191,-35.41C-13.438,-33.302 -14.319,-30.98 -14.835,-28.445C-15.352,-25.907 -15.609,-23.392 -15.609,-20.898C-15.609,-18.489 -15.352,-16.037 -14.835,-13.544C-14.319,-11.048 -13.48,-8.791 -12.32,-6.771C-11.159,-4.75 -9.591,-3.095 -7.611,-1.804C-5.634,-0.515 -3.225,0.13 -0.386,0.13C3.999,0.13 7.373,-1.095 9.74,-3.547C12.105,-5.998 13.589,-9.287 14.191,-13.415L31.865,-13.415C30.659,-4.557 27.221,2.194 21.545,6.839C15.868,11.483 8.6,13.805 -0.257,13.805C-5.246,13.805 -9.826,12.967 -13.996,11.289C-18.17,9.612 -21.717,7.27 -24.64,4.259C-27.565,1.249 -29.845,-2.341 -31.478,-6.514C-33.112,-10.684 -33.928,-15.264 -33.928,-20.253C-33.928,-25.413 -33.176,-30.206 -31.671,-34.637C-30.167,-39.065 -27.952,-42.893 -25.027,-46.118C-22.103,-49.344 -18.534,-51.86 -14.319,-53.665C-10.107,-55.472 -5.289,-56.375 0.13,-56.375C4.084,-56.375 7.891,-55.859 11.547,-54.827C15.201,-53.793 18.468,-52.224 21.351,-50.117C24.232,-48.009 26.575,-45.387 28.382,-42.248C30.188,-39.107 31.22,-35.388 31.478,-31.089L13.546,-31.089C12.34,-38.743 7.825,-42.57 0,-42.57" style="fill:currentColor;fill-rule:nonzero;"/>
        </g>
        <g transform="matrix(1,0,0,1,0,21.818)">
            <rect x="222.429" y="341.544" width="18.32" height="15.094" style="fill:currentColor;"/>
        </g>
        <g transform="matrix(1,0,0,1,207.881,455.472)">
            <path d="M0,-66.696C-2.596,-66.696 -5.173,-66.017 -7.344,-64.592L-7.382,-64.568C-9.274,-63.319 -10.951,-61.814 -12.413,-60.052C-13.876,-58.288 -15.037,-56.376 -15.896,-54.312L-16.154,-54.312L-16.154,-66.696L-33.57,-66.696L-33.57,0L-15.251,0L-15.251,-30.058C-15.251,-33.068 -14.951,-35.863 -14.348,-38.445C-13.747,-41.024 -12.736,-43.281 -11.316,-45.217C-9.897,-47.152 -8.026,-48.676 -5.704,-49.797C-3.382,-50.913 -0.544,-51.473 2.81,-51.473L14.548,-51.473L14.548,0L32.868,0L32.868,-66.696L0,-66.696Z" style="fill:currentColor;fill-rule:nonzero;"/>
        </g>
    </g>
</svg>
