<?xml version="1.0" encoding="UTF-8" standalone="no"?>
<svg
   version="1.1"
   width="859.08948"
   height="528.82965"
   viewBox="0 0 89488.49 55086.424"
   id="svg1302"
   sodipodi:docname="Schematic.svg"
   inkscape:version="1.1 (c4e8f9e, 2021-05-24)"
   xmlns:inkscape="http://www.inkscape.org/namespaces/inkscape"
   xmlns:sodipodi="http://sodipodi.sourceforge.net/DTD/sodipodi-0.dtd"
   xmlns="http://www.w3.org/2000/svg"
   xmlns:svg="http://www.w3.org/2000/svg"
   xmlns:rdf="http://www.w3.org/1999/02/22-rdf-syntax-ns#"
   xmlns:cc="http://creativecommons.org/ns#"
   xmlns:dc="http://purl.org/dc/elements/1.1/">
  <defs
     id="defs1306" />
  <sodipodi:namedview
     id="namedview1304"
     pagecolor="#ffffff"
     bordercolor="#666666"
     borderopacity="1.0"
     inkscape:pageshadow="2"
     inkscape:pageopacity="0.0"
     inkscape:pagecheckerboard="0"
     inkscape:document-units="cm"
     showgrid="false"
     width="35.70022cm"
     fit-margin-top="10"
     fit-margin-left="10"
     fit-margin-right="10"
     fit-margin-bottom="10"
     lock-margins="true"
     units="px"
     inkscape:zoom="0.94868775"
     inkscape:cx="501.7457"
     inkscape:cy="362.60614"
     inkscape:window-width="1841"
     inkscape:window-height="1228"
     inkscape:window-x="0"
     inkscape:window-y="25"
     inkscape:window-maximized="0"
     inkscape:current-layer="svg1302" />
  <title
     id="title824">SVG Picture created as Schematic.svg date 2022/11/27 12:30:38 </title>
  <desc
     id="desc826">Picture generated by Eeschema-SVG </desc>
  <g
     style="fill:#ffffff;fill-opacity:1;stroke:#ffffff;stroke-linecap:round;stroke-linejoin:round;stroke-opacity:1"
     id="g828"
     transform="translate(-29908.336,-24746.336)" />
  <g
     style="fill:#ffffff;fill-opacity:0;stroke:#ffffff;stroke-width:60;stroke-linecap:round;stroke-linejoin:round;stroke-opacity:1"
     id="g874"
     transform="matrix(4,0,0,4,-122758.33,-102110.33)">
    <g
       id="g830" />
    <g
       style="fill:#ffffff;fill-opacity:0;stroke:#ffffff;stroke-width:200;stroke-linecap:round;stroke-linejoin:round;stroke-opacity:1"
       id="g836">
      <path
         style="fill:none;fill-opacity:0;stroke:#ffffff;stroke-width:200;stroke-linecap:round;stroke-linejoin:round;stroke-opacity:1"
         d="m 37700,33300 h 1600"
         id="path832" />
      <path
         style="fill:none;fill-opacity:0;stroke:#ffffff;stroke-width:200;stroke-linecap:round;stroke-linejoin:round;stroke-opacity:1"
         d="m 37700,32700 h 1600"
         id="path834" />
    </g>
    <g
       style="fill:#ffffff;fill-opacity:0;stroke:#ffffff;stroke-width:60;stroke-linecap:round;stroke-linejoin:round;stroke-opacity:1"
       id="g872">
      <path
         d="M 38500,32600 V 31500"
         id="path838" />
      <path
         d="m 38500,33400 v 1100"
         id="path840" />
      <text
         x="40169.332"
         y="32921.34"
         textLength="1106.1812"
         font-size="666.654px"
         lengthAdjust="spacingAndGlyphs"
         text-anchor="middle"
         opacity="0"
         id="text842">C1</text>
      <g
         class="stroked-text"
         id="g852">
        <desc
           id="desc844">C1</desc>
        <path
           d="m 40085,32849 -23,24 -72,24 h -47 l -72,-24 -47,-47 -24,-48 -24,-95 v -72 l 24,-95 24,-48 47,-47 72,-24 h 47 l 72,24 23,24"
           id="path846" />
        <path
           d="m 40562,32897 h -286"
           id="path848" />
        <path
           d="m 40419,32897 v -500 l -48,71 -47,48 -48,24"
           id="path850" />
      </g>
      <text
         x="40621.73"
         y="33920.117"
         textLength="1940.9448"
         font-size="666.654px"
         lengthAdjust="spacingAndGlyphs"
         text-anchor="middle"
         opacity="0"
         id="text854">100n</text>
      <g
         class="stroked-text"
         id="g870">
        <desc
           id="desc856">100n</desc>
        <path
           d="m 40062,33896 h -286"
           id="path858" />
        <path
           d="m 39919,33896 v -500 l -48,71 -47,48 -48,24"
           id="path860" />
        <path
           d="m 40371,33396 h 48 l 47,24 24,23 24,48 24,95 v 119 l -24,96 -24,47 -24,24 -47,24 h -48 l -47,-24 -24,-24 -24,-47 -24,-96 v -119 l 24,-95 24,-48 24,-23 47,-24"
           id="path862" />
        <path
           d="m 40847,33396 h 48 l 48,24 23,23 24,48 24,95 v 119 l -24,96 -24,47 -23,24 -48,24 h -48 l -47,-24 -24,-24 -24,-47 -24,-96 v -119 l 24,-95 24,-48 24,-23 47,-24"
           id="path864" />
        <path
           d="m 41228,33562 v 334"
           id="path866" />
        <path
           d="m 41228,33610 24,-24 48,-24 h 71 l 48,24 24,48 v 262"
           id="path868" />
      </g>
    </g>
  </g>
  <g
     style="fill:#ffffff;fill-opacity:0;stroke:#ffffff;stroke-width:60;stroke-linecap:round;stroke-linejoin:round;stroke-opacity:1"
     id="g918"
     transform="matrix(4,0,0,4,-122758.33,-102110.33)">
    <g
       id="g876" />
    <g
       style="fill:#ffffff;fill-opacity:0;stroke:#ffffff;stroke-width:100;stroke-linecap:round;stroke-linejoin:round;stroke-opacity:1"
       id="g880">
      <rect
         x="42600"
         y="34000"
         width="800"
         height="2000"
         rx="0.000000"
         id="rect878" />
    </g>
    <g
       style="fill:#ffffff;fill-opacity:0;stroke:#ffffff;stroke-width:60;stroke-linecap:round;stroke-linejoin:round;stroke-opacity:1"
       id="g916">
      <path
         d="m 43000,34000 v -500"
         id="path882" />
      <path
         d="m 43000,36000 v 500"
         id="path884" />
      <text
         x="44219.332"
         y="34921.34"
         textLength="1036.1812"
         font-size="666.654px"
         lengthAdjust="spacingAndGlyphs"
         text-anchor="middle"
         opacity="0"
         id="text886">R1</text>
      <g
         class="stroked-text"
         id="g898">
        <desc
           id="desc888">R1</desc>
        <path
           d="m 44135,34897 -166,-238"
           id="path890" />
        <path
           d="m 43850,34897 v -500 h 190 l 48,24 24,24 23,47 v 72 l -23,47 -24,24 -48,24 h -190"
           id="path892" />
        <path
           d="m 44612,34897 h -286"
           id="path894" />
        <path
           d="m 44469,34897 v -500 l -48,71 -47,48 -48,24"
           id="path896" />
      </g>
      <text
         x="44171.73"
         y="35920.117"
         textLength="940.94489"
         font-size="666.654px"
         lengthAdjust="spacingAndGlyphs"
         text-anchor="middle"
         opacity="0"
         id="text900">1k</text>
      <g
         class="stroked-text"
         id="g914">
        <desc
           id="desc902">1k</desc>
        <path
           d="m 44112,35896 h -286"
           id="path904" />
        <path
           d="m 43969,35896 v -500 l -48,71 -47,48 -48,24"
           id="path906" />
        <path
           d="m 44326,35896 v -500"
           id="path908" />
        <path
           d="m 44374,35705 142,191"
           id="path910" />
        <path
           d="m 44516,35562 -190,191"
           id="path912" />
      </g>
    </g>
  </g>
  <g
     style="fill:#ffffff;fill-opacity:0;stroke:#ffffff;stroke-width:60;stroke-linecap:round;stroke-linejoin:round;stroke-opacity:1"
     id="g962"
     transform="matrix(4,0,0,4,-122758.33,-102110.33)">
    <g
       id="g920" />
    <g
       style="fill:#ffffff;fill-opacity:0;stroke:#ffffff;stroke-width:200;stroke-linecap:round;stroke-linejoin:round;stroke-opacity:1"
       id="g926">
      <path
         style="fill:none;fill-opacity:0;stroke:#ffffff;stroke-width:200;stroke-linecap:round;stroke-linejoin:round;stroke-opacity:1"
         d="m 46700,35300 h 1600"
         id="path922" />
      <path
         style="fill:none;fill-opacity:0;stroke:#ffffff;stroke-width:200;stroke-linecap:round;stroke-linejoin:round;stroke-opacity:1"
         d="m 46700,34700 h 1600"
         id="path924" />
    </g>
    <g
       style="fill:#ffffff;fill-opacity:0;stroke:#ffffff;stroke-width:60;stroke-linecap:round;stroke-linejoin:round;stroke-opacity:1"
       id="g960">
      <path
         d="M 47500,34600 V 33500"
         id="path928" />
      <path
         d="m 47500,35400 v 1100"
         id="path930" />
      <text
         x="49169.332"
         y="34921.34"
         textLength="1036.1812"
         font-size="666.654px"
         lengthAdjust="spacingAndGlyphs"
         text-anchor="middle"
         opacity="0"
         id="text932">C2</text>
      <g
         class="stroked-text"
         id="g940">
        <desc
           id="desc934">C2</desc>
        <path
           d="m 49085,34849 -23,24 -72,24 h -47 l -72,-24 -47,-47 -24,-48 -24,-95 v -72 l 24,-95 24,-48 47,-47 72,-24 h 47 l 72,24 23,24"
           id="path936" />
        <path
           d="m 49276,34445 24,-24 47,-24 h 119 l 48,24 24,24 24,47 v 48 l -24,71 -286,286 h 310"
           id="path938" />
      </g>
      <text
         x="49621.73"
         y="35920.117"
         textLength="1940.9448"
         font-size="666.654px"
         lengthAdjust="spacingAndGlyphs"
         text-anchor="middle"
         opacity="0"
         id="text942">100n</text>
      <g
         class="stroked-text"
         id="g958">
        <desc
           id="desc944">100n</desc>
        <path
           d="m 49062,35896 h -286"
           id="path946" />
        <path
           d="m 48919,35896 v -500 l -48,71 -47,48 -48,24"
           id="path948" />
        <path
           d="m 49371,35396 h 48 l 47,24 24,23 24,48 24,95 v 119 l -24,96 -24,47 -24,24 -47,24 h -48 l -47,-24 -24,-24 -24,-47 -24,-96 v -119 l 24,-95 24,-48 24,-23 47,-24"
           id="path950" />
        <path
           d="m 49847,35396 h 48 l 48,24 23,23 24,48 24,95 v 119 l -24,96 -24,47 -23,24 -48,24 h -48 l -47,-24 -24,-24 -24,-47 -24,-96 v -119 l 24,-95 24,-48 24,-23 47,-24"
           id="path952" />
        <path
           d="m 50228,35562 v 334"
           id="path954" />
        <path
           d="m 50228,35610 24,-24 48,-24 h 71 l 48,24 24,48 v 262"
           id="path956" />
      </g>
    </g>
  </g>
  <g
     style="fill:#ffffff;fill-opacity:0;stroke:#ffffff;stroke-width:60;stroke-linecap:round;stroke-linejoin:round;stroke-opacity:1"
     id="g980"
     transform="matrix(4,0,0,4,-122758.33,-102110.33)">
    <g
       id="g978">
      <path
         style="fill:none;fill-opacity:0;stroke:#ffffff;stroke-width:60;stroke-linecap:round;stroke-linejoin:round;stroke-opacity:1"
         d="m 47500,37000 v 500 h 500 l -500,500 -500,-500 h 500"
         id="path964" />
      <text
         x="47500"
         y="38999.332"
         textLength="1583.8188"
         font-size="666.654px"
         lengthAdjust="spacingAndGlyphs"
         text-anchor="middle"
         opacity="0"
         id="text966">GND</text>
      <g
         class="stroked-text"
         id="g976">
        <desc
           id="desc968">GND</desc>
        <path
           d="m 47119,38499 -48,-24 h -71 l -72,24 -48,47 -23,48 -24,95 v 72 l 24,95 23,48 48,47 72,24 h 47 l 72,-24 23,-24 v -166 h -95"
           id="path970" />
        <path
           d="m 47357,38975 v -500 l 285,500 v -500"
           id="path972" />
        <path
           d="m 47880,38975 v -500 h 120 l 71,24 48,47 23,48 24,95 v 72 l -24,95 -23,48 -48,47 -71,24 h -120"
           id="path974" />
      </g>
    </g>
  </g>
  <g
     style="fill:#ffffff;fill-opacity:0;stroke:#ffffff;stroke-width:60;stroke-linecap:round;stroke-linejoin:round;stroke-opacity:1"
     id="g1026"
     transform="matrix(4,0,0,4,-122758.33,-102110.33)">
    <g
       id="g984">
      <path
         style="fill:none;fill-opacity:0;stroke:#ffffff;stroke-width:60;stroke-linecap:round;stroke-linejoin:round;stroke-opacity:1"
         d="M 43000,31500 V 30500"
         id="path982" />
    </g>
    <g
       style="fill:#ffffff;fill-opacity:0;stroke:#ffffff;stroke-width:100;stroke-linecap:round;stroke-linejoin:round;stroke-opacity:1"
       id="g990">
      <path
         style="fill:none;fill-opacity:0;stroke:#ffffff;stroke-width:100;stroke-linecap:round;stroke-linejoin:round;stroke-opacity:1"
         d="m 42500,30500 h 1000 v 200"
         id="path986" />
      <path
         style="fill:none;fill-opacity:0;stroke:#ffffff;stroke-width:100;stroke-linecap:round;stroke-linejoin:round;stroke-opacity:1"
         d="m 42500,31500 h 1000 l -500,-1000 z"
         id="path988" />
    </g>
    <g
       style="fill:#ffffff;fill-opacity:0;stroke:#ffffff;stroke-width:60;stroke-linecap:round;stroke-linejoin:round;stroke-opacity:1"
       id="g1024">
      <path
         d="M 43000,30500 V 29500"
         id="path992" />
      <path
         d="m 43000,31500 v 1000"
         id="path994" />
      <text
         x="44319.332"
         y="30921.338"
         textLength="1036.1812"
         font-size="666.654px"
         lengthAdjust="spacingAndGlyphs"
         text-anchor="middle"
         opacity="0"
         id="text996">D1</text>
      <g
         class="stroked-text"
         id="g1006">
        <desc
           id="desc998">D1</desc>
        <path
           d="m 43950,30897 v -500 h 119 l 71,24 48,47 24,48 23,95 v 72 l -23,95 -24,48 -48,47 -71,24 h -119"
           id="path1000" />
        <path
           d="m 44712,30897 h -286"
           id="path1002" />
        <path
           d="m 44569,30897 v -500 l -48,71 -47,48 -48,24"
           id="path1004" />
      </g>
      <text
         x="44640.789"
         y="31920.117"
         textLength="1679.0552"
         font-size="666.654px"
         lengthAdjust="spacingAndGlyphs"
         text-anchor="middle"
         opacity="0"
         id="text1008">9.1V</text>
      <g
         class="stroked-text"
         id="g1022">
        <desc
           id="desc1010">9.1V</desc>
        <path
           d="m 43974,31896 h 95 l 47,-24 24,-24 48,-71 24,-95 v -191 l -24,-48 -24,-23 -48,-24 h -95 l -47,24 -24,23 -24,48 v 119 l 24,48 24,24 47,23 h 95 l 48,-23 24,-24 24,-48"
           id="path1012" />
        <path
           d="m 44426,31848 24,24 -24,24 -24,-24 24,-24 v 48"
           id="path1014" />
        <path
           d="m 44926,31896 h -286"
           id="path1016" />
        <path
           d="m 44783,31896 v -500 l -47,71 -48,48 -48,24"
           id="path1018" />
        <path
           d="m 45069,31396 167,500 166,-500"
           id="path1020" />
      </g>
    </g>
  </g>
  <g
     style="fill:#ffffff;fill-opacity:0;stroke:#ffffff;stroke-width:60;stroke-linecap:round;stroke-linejoin:round;stroke-opacity:1"
     id="g1066"
     transform="matrix(4,0,0,4,-122758.33,-102110.33)">
    <g
       id="g1030">
      <path
         style="fill:none;fill-opacity:0;stroke:#ffffff;stroke-width:60;stroke-linecap:round;stroke-linejoin:round;stroke-opacity:1"
         d="m 50500,33000 250,-500"
         id="path1028" />
    </g>
    <g
       style="fill:#ffffff;fill-opacity:0;stroke:#ffffff;stroke-width:80;stroke-linecap:round;stroke-linejoin:round;stroke-opacity:1"
       id="g1034">
      <path
         style="fill:none;fill-opacity:0;stroke:#ffffff;stroke-width:80;stroke-linecap:round;stroke-linejoin:round;stroke-opacity:1"
         d="m 50500,32500 h 1000"
         id="path1032" />
    </g>
    <g
       style="fill:#ffffff;fill-opacity:0;stroke:#ffffff;stroke-width:60;stroke-linecap:round;stroke-linejoin:round;stroke-opacity:1"
       id="g1038">
      <path
         style="fill:none;fill-opacity:0;stroke:#ffffff;stroke-width:60;stroke-linecap:round;stroke-linejoin:round;stroke-opacity:1"
         d="M 51000,33000 V 31000"
         id="path1036" />
    </g>
    <g
       style="fill:#ffffff;fill-opacity:0;stroke:#ffffff;stroke-width:80;stroke-linecap:round;stroke-linejoin:round;stroke-opacity:1"
       id="g1042">
      <path
         style="fill:none;fill-opacity:0;stroke:#ffffff;stroke-width:80;stroke-linecap:round;stroke-linejoin:round;stroke-opacity:1"
         d="m 50500,31500 h 1000 l -500,1000 z"
         id="path1040" />
    </g>
    <g
       style="fill:#ffffff;fill-opacity:0;stroke:#ffffff;stroke-width:60;stroke-linecap:round;stroke-linejoin:round;stroke-opacity:1"
       id="g1064">
      <path
         d="M 51000,31500 V 30500"
         id="path1044" />
      <path
         d="M 50500,33000 H 49500"
         id="path1046" />
      <path
         d="m 51000,32500 v 1000"
         id="path1048" />
      <text
         x="52321.262"
         y="31921.338"
         textLength="1060"
         font-size="666.654px"
         lengthAdjust="spacingAndGlyphs"
         text-anchor="middle"
         opacity="0"
         id="text1050">Q1</text>
      <g
         class="stroked-text"
         id="g1062">
        <desc
           id="desc1052">Q1</desc>
        <path
           d="m 52273,31945 -48,-24 -47,-48 -72,-71 -47,-24 h -48"
           id="path1054" />
        <path
           d="m 52035,31897 -48,-24 -47,-47 -24,-96 v -166 l 24,-96 47,-47 48,-24 h 95 l 48,24 47,47 24,96 v 166 l -24,96 -47,47 -48,24 h -95"
           id="path1056" />
        <path
           d="m 52725,31897 h -285"
           id="path1058" />
        <path
           d="m 52583,31897 v -500 l -48,71 -48,48 -47,24"
           id="path1060" />
      </g>
    </g>
  </g>
  <g
     style="fill:#ffffff;fill-opacity:0;stroke:#ffffff;stroke-width:60;stroke-linecap:round;stroke-linejoin:round;stroke-opacity:1"
     id="g1090"
     transform="matrix(4,0,0,4,-122758.33,-102110.33)">
    <g
       id="g1088">
      <path
         style="fill:none;fill-opacity:0;stroke:#ffffff;stroke-width:60;stroke-linecap:round;stroke-linejoin:round;stroke-opacity:1"
         d="m 50700,27000 300,-500"
         id="path1068" />
      <path
         style="fill:none;fill-opacity:0;stroke:#ffffff;stroke-width:60;stroke-linecap:round;stroke-linejoin:round;stroke-opacity:1"
         d="M 51000,27500 V 26500"
         id="path1070" />
      <path
         style="fill:none;fill-opacity:0;stroke:#ffffff;stroke-width:60;stroke-linecap:round;stroke-linejoin:round;stroke-opacity:1"
         d="m 51000,26500 300,500"
         id="path1072" />
      <text
         x="51000"
         y="26342.166"
         textLength="1583.8188"
         font-size="666.654px"
         lengthAdjust="spacingAndGlyphs"
         text-anchor="middle"
         opacity="0"
         id="text1074">+9V</text>
      <g
         class="stroked-text"
         id="g1086">
        <desc
           id="desc1076">+9V</desc>
        <path
           d="m 50357,26127 h 381"
           id="path1078" />
        <path
           d="m 50547,26318 v -381"
           id="path1080" />
        <path
           d="m 51000,26318 h 95 l 47,-24 24,-24 48,-71 24,-95 v -191 l -24,-48 -24,-23 -48,-24 h -95 l -47,24 -24,23 -24,48 v 119 l 24,48 24,24 47,23 h 95 l 48,-23 24,-24 24,-48"
           id="path1082" />
        <path
           d="m 51380,25818 167,500 167,-500"
           id="path1084" />
      </g>
    </g>
  </g>
  <g
     style="fill:#ffffff;fill-opacity:0;stroke:#ffffff;stroke-width:60;stroke-linecap:round;stroke-linejoin:round;stroke-opacity:1"
     id="g1138"
     transform="matrix(4,0,0,4,-122758.33,-102110.33)">
    <g
       id="g1092" />
    <g
       style="fill:#ffffff;fill-opacity:0;stroke:#ffffff;stroke-width:100;stroke-linecap:round;stroke-linejoin:round;stroke-opacity:1"
       id="g1096">
      <rect
         x="34500"
         y="28700"
         width="2000"
         height="600"
         rx="0.000000"
         id="rect1094" />
    </g>
    <g
       style="fill:#ffffff;fill-opacity:0;stroke:#ffffff;stroke-width:60;stroke-linecap:round;stroke-linejoin:round;stroke-opacity:1"
       id="g1136">
      <path
         style="fill:none;fill-opacity:0;stroke:#ffffff;stroke-width:60;stroke-linecap:round;stroke-linejoin:round;stroke-opacity:1"
         d="m 34500,29000 h 2000"
         id="path1098" />
      <path
         d="m 34500,29000 h -500"
         id="path1100" />
      <path
         d="m 36500,29000 h 500"
         id="path1102" />
      <text
         x="35499.961"
         y="27493.387"
         textLength="964.76379"
         font-size="666.654px"
         lengthAdjust="spacingAndGlyphs"
         text-anchor="middle"
         opacity="0"
         id="text1104">F1</text>
      <g
         class="stroked-text"
         id="g1116">
        <desc
           id="desc1106">F1</desc>
        <path
           d="m 35333,27207 h -167"
           id="path1108" />
        <path
           d="m 35166,27469 v -500 h 238"
           id="path1110" />
        <path
           d="m 35857,27469 h -286"
           id="path1112" />
        <path
           d="m 35714,27469 v -500 l -48,71 -48,48 -47,24"
           id="path1114" />
      </g>
      <text
         x="35499.961"
         y="28492.166"
         textLength="1774.2914"
         font-size="666.654px"
         lengthAdjust="spacingAndGlyphs"
         text-anchor="middle"
         opacity="0"
         id="text1118">Fuse</text>
      <g
         class="stroked-text"
         id="g1134">
        <desc
           id="desc1120">Fuse</desc>
        <path
           d="m 34928,28206 h -167"
           id="path1122" />
        <path
           d="m 34761,28468 v -500 h 238"
           id="path1124" />
        <path
           d="m 35404,28135 v 333"
           id="path1126" />
        <path
           d="m 35190,28135 v 261 l 24,48 47,24 h 72 l 47,-24 24,-24"
           id="path1128" />
        <path
           d="m 35618,28444 48,24 h 95 l 48,-24 24,-48 v -23 l -24,-48 -48,-24 h -71 l -48,-24 -24,-47 v -24 l 24,-48 48,-23 h 71 l 48,23"
           id="path1130" />
        <path
           d="m 36238,28444 -48,24 h -95 l -48,-24 -24,-48 v -190 l 24,-48 48,-23 h 95 l 48,23 23,48 v 48 l -238,47"
           id="path1132" />
      </g>
    </g>
  </g>
  <g
     style="fill:#ffffff;fill-opacity:0;stroke:#ffffff;stroke-width:60;stroke-linecap:round;stroke-linejoin:round;stroke-opacity:1"
     id="g1182"
     transform="matrix(4,0,0,4,-122758.33,-102110.33)">
    <g
       id="g1148">
      <path
         style="fill:none;fill-opacity:0;stroke:#ffffff;stroke-width:60;stroke-linecap:round;stroke-linejoin:round;stroke-opacity:1"
         d="m 31500,32900 h 1000"
         id="path1140" />
      <path
         style="fill:none;fill-opacity:0;stroke:#ffffff;stroke-width:60;stroke-linecap:round;stroke-linejoin:round;stroke-opacity:1"
         d="m 31700,33100 h -200"
         id="path1142" />
      <path
         style="fill:none;fill-opacity:0;stroke:#ffffff;stroke-width:60;stroke-linecap:round;stroke-linejoin:round;stroke-opacity:1"
         d="m 32100,33100 h -200"
         id="path1144" />
      <path
         style="fill:none;fill-opacity:0;stroke:#ffffff;stroke-width:60;stroke-linecap:round;stroke-linejoin:round;stroke-opacity:1"
         d="m 32500,33100 h -200"
         id="path1146" />
    </g>
    <g
       style="fill:#ffffff;fill-opacity:0;stroke:#ffffff;stroke-width:100;stroke-linecap:round;stroke-linejoin:round;stroke-opacity:1"
       id="g1152">
      <circle
         cx="32000"
         cy="33000"
         r="1000"
         id="circle1150" />
    </g>
    <g
       style="fill:#ffffff;fill-opacity:0;stroke:#ffffff;stroke-width:62.5197;stroke-linecap:round;stroke-linejoin:round;stroke-opacity:1"
       id="g1164">
      <text
         x="32000"
         y="32500"
         textLength="679.05511"
         font-size="666.654px"
         lengthAdjust="spacingAndGlyphs"
         text-anchor="middle"
         opacity="0"
         id="text1154">+</text>
      <g
         class="stroked-text"
         id="g1162">
        <desc
           id="desc1156">+</desc>
        <path
           d="m 31809,32285 h 381"
           id="path1158" />
        <path
           d="m 32000,32476 v -381"
           id="path1160" />
      </g>
    </g>
    <g
       style="fill:#ffffff;fill-opacity:0;stroke:#ffffff;stroke-width:60;stroke-linecap:round;stroke-linejoin:round;stroke-opacity:1"
       id="g1180">
      <path
         d="M 32000,32000 V 31000"
         id="path1166" />
      <path
         d="m 32000,34000 v 1000"
         id="path1168" />
      <text
         x="33783.621"
         y="33346.023"
         textLength="967.28345"
         font-size="666.654px"
         lengthAdjust="spacingAndGlyphs"
         text-anchor="middle"
         opacity="0"
         id="text1170">9V</text>
      <g
         class="stroked-text"
         id="g1178">
        <desc
           id="desc1172">9V</desc>
        <path
           d="m 33474,33322 h 95 l 47,-24 24,-24 48,-71 24,-96 v -190 l -24,-48 -24,-23 -48,-24 h -95 l -47,24 -24,23 -24,48 v 119 l 24,48 24,23 47,24 h 95 l 48,-24 24,-23 24,-48"
           id="path1174" />
        <path
           d="m 33855,32822 166,500 167,-500"
           id="path1176" />
      </g>
    </g>
  </g>
  <g
     style="fill:#ffffff;fill-opacity:0;stroke:#ffffff;stroke-width:60;stroke-linecap:round;stroke-linejoin:round;stroke-opacity:1"
     id="g1282"
     transform="matrix(4,0,0,4,-122758.33,-102110.33)">
    <path
       d="m 32000,29000 h 2000"
       id="path1184" />
    <path
       d="M 32000,31000 V 29000"
       id="path1186" />
    <path
       d="m 32000,35000 v 2000"
       id="path1188" />
    <path
       d="m 51000,29000 v 1500"
       id="path1190" />
    <path
       d="m 51000,27500 v 1500"
       id="path1192" />
    <path
       d="m 32000,37000 h 6500"
       id="path1194" />
    <path
       d="m 47500,36500 v 500"
       id="path1196" />
    <path
       d="m 47500,37000 h 3500"
       id="path1198" />
    <path
       d="m 43000,33000 h 4500"
       id="path1200" />
    <path
       d="m 51000,33500 v 3500"
       id="path1202" />
    <path
       d="m 43000,29000 h 8000"
       id="path1204" />
    <path
       d="m 43000,33000 v 500"
       id="path1206" />
    <path
       d="m 47500,33000 v 500"
       id="path1208" />
    <path
       d="m 43000,36500 v 500"
       id="path1210" />
    <path
       d="m 43000,37000 h 4500"
       id="path1212" />
    <path
       d="m 47500,33000 h 2000"
       id="path1214" />
    <path
       d="m 38500,29000 h 4500"
       id="path1216" />
    <path
       d="m 43000,29000 v 500"
       id="path1218" />
    <path
       d="m 38500,29000 v 2500"
       id="path1220" />
    <path
       d="m 37000,29000 h 1500"
       id="path1222" />
    <path
       d="m 43000,32500 v 500"
       id="path1224" />
    <path
       d="m 38500,37000 h 4500"
       id="path1226" />
    <path
       d="m 38500,34500 v 2500"
       id="path1228" />
    <text
       x="52321.262"
       y="31921.338"
       textLength="1060"
       font-size="666.654px"
       lengthAdjust="spacingAndGlyphs"
       text-anchor="middle"
       opacity="0"
       id="text1230">Q1</text>
    <g
       class="stroked-text"
       id="g1242">
      <desc
         id="desc1232">Q1</desc>
      <path
         d="m 52273,31945 -48,-24 -47,-48 -72,-71 -47,-24 h -48"
         id="path1234" />
      <path
         d="m 52035,31897 -48,-24 -47,-47 -24,-96 v -166 l 24,-96 47,-47 48,-24 h 95 l 48,24 47,47 24,96 v 166 l -24,96 -47,47 -48,24 h -95"
         id="path1236" />
      <path
         d="m 52725,31897 h -285"
         id="path1238" />
      <path
         d="m 52583,31897 v -500 l -48,71 -48,48 -47,24"
         id="path1240" />
    </g>
    <path
       d="M 51000,31500 V 30500"
       id="path1244" />
    <path
       d="M 50500,33000 H 49500"
       id="path1246" />
    <path
       d="m 51000,32500 v 1000"
       id="path1248" />
    <text
       x="49169.332"
       y="34921.34"
       textLength="1036.1812"
       font-size="666.654px"
       lengthAdjust="spacingAndGlyphs"
       text-anchor="middle"
       opacity="0"
       id="text1250">C2</text>
    <g
       class="stroked-text"
       id="g1258">
      <desc
         id="desc1252">C2</desc>
      <path
         d="m 49085,34849 -23,24 -72,24 h -47 l -72,-24 -47,-47 -24,-48 -24,-95 v -72 l 24,-95 24,-48 47,-47 72,-24 h 47 l 72,24 23,24"
         id="path1254" />
      <path
         d="m 49276,34445 24,-24 47,-24 h 119 l 48,24 24,24 24,47 v 48 l -24,71 -286,286 h 310"
         id="path1256" />
    </g>
    <text
       x="49621.73"
       y="35920.117"
       textLength="1940.9448"
       font-size="666.654px"
       lengthAdjust="spacingAndGlyphs"
       text-anchor="middle"
       opacity="0"
       id="text1260">100n</text>
    <g
       class="stroked-text"
       id="g1276">
      <desc
         id="desc1262">100n</desc>
      <path
         d="m 49062,35896 h -286"
         id="path1264" />
      <path
         d="m 48919,35896 v -500 l -48,71 -47,48 -48,24"
         id="path1266" />
      <path
         d="m 49371,35396 h 48 l 47,24 24,23 24,48 24,95 v 119 l -24,96 -24,47 -24,24 -47,24 h -48 l -47,-24 -24,-24 -24,-47 -24,-96 v -119 l 24,-95 24,-48 24,-23 47,-24"
         id="path1268" />
      <path
         d="m 49847,35396 h 48 l 48,24 23,23 24,48 24,95 v 119 l -24,96 -24,47 -23,24 -48,24 h -48 l -47,-24 -24,-24 -24,-47 -24,-96 v -119 l 24,-95 24,-48 24,-23 47,-24"
         id="path1270" />
      <path
         d="m 50228,35562 v 334"
         id="path1272" />
      <path
         d="m 50228,35610 24,-24 48,-24 h 71 l 48,24 24,48 v 262"
         id="path1274" />
    </g>
    <path
       d="M 47500,34600 V 33500"
       id="path1278" />
    <path
       d="m 47500,35400 v 1100"
       id="path1280" />
  </g>
  <g
     style="fill:#ffffff;fill-opacity:1;stroke:#ffffff;stroke-width:60;stroke-linecap:round;stroke-linejoin:round;stroke-opacity:1"
     id="g1300"
     transform="matrix(4,0,0,4,-122758.33,-102110.33)">
    <circle
       cx="43000"
       cy="33000"
       r="180"
       id="circle1284" />
    <circle
       cx="47500"
       cy="33000"
       r="180"
       id="circle1286" />
    <circle
       cx="43000"
       cy="29000"
       r="180"
       id="circle1288" />
    <circle
       cx="51000"
       cy="29000"
       r="180"
       id="circle1290" />
    <circle
       cx="47500"
       cy="37000"
       r="180"
       id="circle1292" />
    <circle
       cx="38500"
       cy="29000"
       r="180"
       id="circle1294" />
    <circle
       cx="43000"
       cy="37000"
       r="180"
       id="circle1296" />
    <circle
       cx="38500"
       cy="37000"
       r="180"
       id="circle1298" />
  </g>
  <metadata
     id="metadata1390">
    <rdf:RDF>
      <cc:Work
         rdf:about="">
        <dc:title>SVG Picture created as Schematic.svg date 2022/11/27 12:30:38 </dc:title>
      </cc:Work>
    </rdf:RDF>
  </metadata>
</svg>
