<?xml version="1.0" encoding="UTF-8" standalone="no"?>
<svg
   version="1.1"
   width="475.5957"
   height="350.73135"
   viewBox="0 0 49541.221 36534.518"
   id="svg2304"
   sodipodi:docname="mosfet-switch.svg"
   inkscape:version="1.1 (c4e8f9e, 2021-05-24)"
   xmlns:inkscape="http://www.inkscape.org/namespaces/inkscape"
   xmlns:sodipodi="http://sodipodi.sourceforge.net/DTD/sodipodi-0.dtd"
   xmlns="http://www.w3.org/2000/svg"
   xmlns:svg="http://www.w3.org/2000/svg"
   xmlns:rdf="http://www.w3.org/1999/02/22-rdf-syntax-ns#"
   xmlns:cc="http://creativecommons.org/ns#"
   xmlns:dc="http://purl.org/dc/elements/1.1/">
  <defs
     id="defs2308" />
  <sodipodi:namedview
     id="namedview2306"
     pagecolor="#ffffff"
     bordercolor="#666666"
     borderopacity="1.0"
     inkscape:pageshadow="2"
     inkscape:pageopacity="0.0"
     inkscape:pagecheckerboard="true"
     inkscape:document-units="cm"
     showgrid="false"
     lock-margins="true"
     units="px"
     fit-margin-top="10"
     fit-margin-left="10"
     fit-margin-right="10"
     fit-margin-bottom="10"
     inkscape:zoom="4.7099055"
     inkscape:cx="294.37958"
     inkscape:cy="315.39911"
     inkscape:window-width="1720"
     inkscape:window-height="1345"
     inkscape:window-x="232"
     inkscape:window-y="111"
     inkscape:window-maximized="0"
     inkscape:current-layer="svg2304" />
  <title
     id="title1878">SVG Picture created as Schematic.svg date 2022/11/27 13:01:21 </title>
  <desc
     id="desc1880">Picture generated by Eeschema-SVG </desc>
  <g
     style="fill:#ffffff;fill-opacity:1;stroke:#ffffff;stroke-linecap:round;stroke-linejoin:round;stroke-opacity:1"
     id="g1882"
     transform="translate(-29908.334,-25447.333)" />
  <g
     style="fill:#ffffff;fill-opacity:0;stroke:#ffffff;stroke-width:60;stroke-linecap:round;stroke-linejoin:round;stroke-opacity:1"
     id="g1926"
     transform="matrix(2.0757953,0,0,2.0757953,-63204.198,-53944.075)">
    <g
       id="g1886">
      <path
         style="fill:none;fill-opacity:0;stroke:#ffffff;stroke-width:60;stroke-linecap:round;stroke-linejoin:round;stroke-opacity:1"
         d="M 36500,39500 V 38500"
         id="path1884" />
    </g>
    <g
       style="fill:#ffffff;fill-opacity:0;stroke:#ffffff;stroke-width:100;stroke-linecap:round;stroke-linejoin:round;stroke-opacity:1"
       id="g1892">
      <path
         style="fill:none;fill-opacity:0;stroke:#ffffff;stroke-width:100;stroke-linecap:round;stroke-linejoin:round;stroke-opacity:1"
         d="m 36000,38500 h 1000 v 200"
         id="path1888" />
      <path
         style="fill:none;fill-opacity:0;stroke:#ffffff;stroke-width:100;stroke-linecap:round;stroke-linejoin:round;stroke-opacity:1"
         d="m 36000,39500 h 1000 l -500,-1000 z"
         id="path1890" />
    </g>
    <g
       style="fill:#ffffff;fill-opacity:0;stroke:#ffffff;stroke-width:60;stroke-linecap:round;stroke-linejoin:round;stroke-opacity:1"
       id="g1924">
      <path
         d="M 36500,38500 V 37500"
         id="path1894" />
      <path
         d="m 36500,39500 v 1000"
         id="path1896" />
      <text
         x="37819.332"
         y="38892.285"
         textLength="1106.1812"
         font-size="666.654px"
         lengthAdjust="spacingAndGlyphs"
         text-anchor="middle"
         opacity="0"
         id="text1898">D1</text>
      <g
         class="stroked-text"
         id="g1908">
        <desc
           id="desc1900">D1</desc>
        <path
           d="m 37450,38868 v -500 h 119 l 71,24 48,47 24,48 23,95 v 72 l -23,95 -24,48 -48,47 -71,24 h -119"
           id="path1902" />
        <path
           d="m 38212,38868 h -286"
           id="path1904" />
        <path
           d="m 38069,38868 v -500 l -48,71 -47,48 -48,24"
           id="path1906" />
      </g>
      <text
         x="38021.73"
         y="39984.844"
         textLength="1440.9448"
         font-size="666.654px"
         lengthAdjust="spacingAndGlyphs"
         text-anchor="middle"
         opacity="0"
         id="text1910">10V</text>
      <g
         class="stroked-text"
         id="g1922">
        <desc
           id="desc1912">10V</desc>
        <path
           d="m 37712,39961 h -286"
           id="path1914" />
        <path
           d="m 37569,39961 v -500 l -48,71 -47,48 -48,23"
           id="path1916" />
        <path
           d="m 38021,39461 h 48 l 47,23 24,24 24,48 24,95 v 119 l -24,95 -24,48 -24,24 -47,24 h -48 l -47,-24 -24,-24 -24,-48 -24,-95 v -119 l 24,-95 24,-48 24,-24 47,-23"
           id="path1918" />
        <path
           d="m 38331,39461 166,500 167,-500"
           id="path1920" />
      </g>
    </g>
  </g>
  <g
     style="fill:#ffffff;fill-opacity:0;stroke:#ffffff;stroke-width:60;stroke-linecap:round;stroke-linejoin:round;stroke-opacity:1"
     id="g1944"
     transform="matrix(2.0757953,0,0,2.0757953,-63204.198,-53944.075)">
    <g
       id="g1942">
      <path
         style="fill:none;fill-opacity:0;stroke:#ffffff;stroke-width:60;stroke-linecap:round;stroke-linejoin:round;stroke-opacity:1"
         d="m 36500,41000 v 500 h 500 l -500,500 -500,-500 h 500"
         id="path1928" />
      <text
         x="36500"
         y="43046.18"
         textLength="1583.8188"
         font-size="666.654px"
         lengthAdjust="spacingAndGlyphs"
         text-anchor="middle"
         opacity="0"
         id="text1930">GND</text>
      <g
         class="stroked-text"
         id="g1940">
        <desc
           id="desc1932">GND</desc>
        <path
           d="m 36119,42546 -48,-24 h -71 l -72,24 -48,47 -23,48 -24,95 v 72 l 24,95 23,47 48,48 72,24 h 47 l 72,-24 23,-24 v -166 h -95"
           id="path1934" />
        <path
           d="m 36357,43022 v -500 l 285,500 v -500"
           id="path1936" />
        <path
           d="m 36880,43022 v -500 h 120 l 71,24 48,47 23,48 24,95 v 72 l -24,95 -23,47 -48,48 -71,24 h -120"
           id="path1938" />
      </g>
    </g>
  </g>
  <g
     style="fill:#ffffff;fill-opacity:0;stroke:#ffffff;stroke-width:60;stroke-linecap:round;stroke-linejoin:round;stroke-opacity:1"
     id="g1988"
     transform="matrix(2.0757953,0,0,2.0757953,-63204.198,-53944.075)">
    <g
       id="g1954">
      <path
         style="fill:none;fill-opacity:0;stroke:#ffffff;stroke-width:60;stroke-linecap:round;stroke-linejoin:round;stroke-opacity:1"
         d="m 31500,34900 h 1000"
         id="path1946" />
      <path
         style="fill:none;fill-opacity:0;stroke:#ffffff;stroke-width:60;stroke-linecap:round;stroke-linejoin:round;stroke-opacity:1"
         d="m 31700,35100 h -200"
         id="path1948" />
      <path
         style="fill:none;fill-opacity:0;stroke:#ffffff;stroke-width:60;stroke-linecap:round;stroke-linejoin:round;stroke-opacity:1"
         d="m 32100,35100 h -200"
         id="path1950" />
      <path
         style="fill:none;fill-opacity:0;stroke:#ffffff;stroke-width:60;stroke-linecap:round;stroke-linejoin:round;stroke-opacity:1"
         d="m 32500,35100 h -200"
         id="path1952" />
    </g>
    <g
       style="fill:#ffffff;fill-opacity:0;stroke:#ffffff;stroke-width:100;stroke-linecap:round;stroke-linejoin:round;stroke-opacity:1"
       id="g1958">
      <circle
         cx="32000"
         cy="35000"
         r="1000"
         id="circle1956" />
    </g>
    <g
       style="fill:#ffffff;fill-opacity:0;stroke:#ffffff;stroke-width:62.5197;stroke-linecap:round;stroke-linejoin:round;stroke-opacity:1"
       id="g1970">
      <text
         x="32000"
         y="34500"
         textLength="679.05511"
         font-size="666.654px"
         lengthAdjust="spacingAndGlyphs"
         text-anchor="middle"
         opacity="0"
         id="text1960">+</text>
      <g
         class="stroked-text"
         id="g1968">
        <desc
           id="desc1962">+</desc>
        <path
           d="m 31809,34285 h 381"
           id="path1964" />
        <path
           d="m 32000,34476 v -381"
           id="path1966" />
      </g>
    </g>
    <g
       style="fill:#ffffff;fill-opacity:0;stroke:#ffffff;stroke-width:60;stroke-linecap:round;stroke-linejoin:round;stroke-opacity:1"
       id="g1986">
      <path
         d="M 32000,34000 V 33000"
         id="path1972" />
      <path
         d="m 32000,36000 v 1000"
         id="path1974" />
      <text
         x="33783.621"
         y="35346.023"
         textLength="967.28345"
         font-size="666.654px"
         lengthAdjust="spacingAndGlyphs"
         text-anchor="middle"
         opacity="0"
         id="text1976">9V</text>
      <g
         class="stroked-text"
         id="g1984">
        <desc
           id="desc1978">9V</desc>
        <path
           d="m 33474,35322 h 95 l 47,-24 24,-24 48,-71 24,-96 v -190 l -24,-48 -24,-23 -48,-24 h -95 l -47,24 -24,23 -24,48 v 119 l 24,48 24,23 47,24 h 95 l 48,-24 24,-23 24,-48"
           id="path1980" />
        <path
           d="m 33855,34822 166,500 167,-500"
           id="path1982" />
      </g>
    </g>
  </g>
  <g
     style="fill:#ffffff;fill-opacity:0;stroke:#ffffff;stroke-width:60;stroke-linecap:round;stroke-linejoin:round;stroke-opacity:1"
     id="g2032"
     transform="matrix(2.0757953,0,0,2.0757953,-63204.198,-53944.075)">
    <g
       id="g1990" />
    <g
       style="fill:#ffffff;fill-opacity:0;stroke:#ffffff;stroke-width:100;stroke-linecap:round;stroke-linejoin:round;stroke-opacity:1"
       id="g1994">
      <rect
         x="47600"
         y="38000"
         width="800"
         height="2000"
         rx="0.000000"
         id="rect1992" />
    </g>
    <g
       style="fill:#ffffff;fill-opacity:0;stroke:#ffffff;stroke-width:60;stroke-linecap:round;stroke-linejoin:round;stroke-opacity:1"
       id="g2030">
      <path
         d="m 48000,38000 v -500"
         id="path1996" />
      <path
         d="m 48000,40000 v 500"
         id="path1998" />
      <text
         x="49219.332"
         y="38892.285"
         textLength="1036.1812"
         font-size="666.654px"
         lengthAdjust="spacingAndGlyphs"
         text-anchor="middle"
         opacity="0"
         id="text2000">R2</text>
      <g
         class="stroked-text"
         id="g2010">
        <desc
           id="desc2002">R2</desc>
        <path
           d="m 49135,38868 -166,-238"
           id="path2004" />
        <path
           d="m 48850,38868 v -500 h 190 l 48,24 24,24 23,47 v 72 l -23,47 -24,24 -48,24 h -190"
           id="path2006" />
        <path
           d="m 49326,38416 24,-24 47,-24 h 119 l 48,24 24,24 24,47 v 48 l -24,71 -286,286 h 310"
           id="path2008" />
      </g>
      <text
         x="49409.805"
         y="39984.844"
         textLength="1417.126"
         font-size="666.654px"
         lengthAdjust="spacingAndGlyphs"
         text-anchor="middle"
         opacity="0"
         id="text2012">10k</text>
      <g
         class="stroked-text"
         id="g2028">
        <desc
           id="desc2014">10k</desc>
        <path
           d="m 49112,39961 h -286"
           id="path2016" />
        <path
           d="m 48969,39961 v -500 l -48,71 -47,48 -48,23"
           id="path2018" />
        <path
           d="m 49421,39461 h 48 l 47,23 24,24 24,48 24,95 v 119 l -24,95 -24,48 -24,24 -47,24 h -48 l -47,-24 -24,-24 -24,-48 -24,-95 v -119 l 24,-95 24,-48 24,-24 47,-23"
           id="path2020" />
        <path
           d="m 49802,39961 v -500"
           id="path2022" />
        <path
           d="m 49850,39770 143,191"
           id="path2024" />
        <path
           d="m 49993,39627 -191,191"
           id="path2026" />
      </g>
    </g>
  </g>
  <g
     style="fill:#ffffff;fill-opacity:0;stroke:#ffffff;stroke-width:60;stroke-linecap:round;stroke-linejoin:round;stroke-opacity:1"
     id="g2096"
     transform="matrix(2.0757953,0,0,2.0757953,-63204.198,-53944.075)">
    <g
       id="g2052" />
    <g
       style="fill:#ffffff;fill-opacity:0;stroke:#ffffff;stroke-width:100;stroke-linecap:round;stroke-linejoin:round;stroke-opacity:1"
       id="g2056">
      <rect
         x="36100"
         y="31000"
         width="800"
         height="2000"
         rx="0.000000"
         id="rect2054" />
    </g>
    <g
       style="fill:#ffffff;fill-opacity:0;stroke:#ffffff;stroke-width:60;stroke-linecap:round;stroke-linejoin:round;stroke-opacity:1"
       id="g2094">
      <path
         d="m 36500,31000 v -500"
         id="path2058" />
      <path
         d="m 36500,33000 v 500"
         id="path2060" />
      <text
         x="37719.332"
         y="31892.283"
         textLength="1036.1812"
         font-size="666.654px"
         lengthAdjust="spacingAndGlyphs"
         text-anchor="middle"
         opacity="0"
         id="text2062">R1</text>
      <g
         class="stroked-text"
         id="g2074">
        <desc
           id="desc2064">R1</desc>
        <path
           d="m 37635,31868 -166,-238"
           id="path2066" />
        <path
           d="m 37350,31868 v -500 h 190 l 48,24 24,24 23,47 v 72 l -23,47 -24,24 -48,24 h -190"
           id="path2068" />
        <path
           d="m 38112,31868 h -286"
           id="path2070" />
        <path
           d="m 37969,31868 v -500 l -48,71 -47,48 -48,24"
           id="path2072" />
      </g>
      <text
         x="37909.805"
         y="32984.844"
         textLength="1417.126"
         font-size="666.654px"
         lengthAdjust="spacingAndGlyphs"
         text-anchor="middle"
         opacity="0"
         id="text2076">10k</text>
      <g
         class="stroked-text"
         id="g2092">
        <desc
           id="desc2078">10k</desc>
        <path
           d="m 37612,32961 h -286"
           id="path2080" />
        <path
           d="m 37469,32961 v -500 l -48,71 -47,48 -48,23"
           id="path2082" />
        <path
           d="m 37921,32461 h 48 l 47,23 24,24 24,48 24,95 v 119 l -24,95 -24,48 -24,24 -47,24 h -48 l -47,-24 -24,-24 -24,-48 -24,-95 v -119 l 24,-95 24,-48 24,-24 47,-23"
           id="path2084" />
        <path
           d="m 38302,32961 v -500"
           id="path2086" />
        <path
           d="m 38350,32770 143,191"
           id="path2088" />
        <path
           d="m 38493,32627 -191,191"
           id="path2090" />
      </g>
    </g>
  </g>
  <g
     style="fill:#ffffff;fill-opacity:0;stroke:#ffffff;stroke-width:60;stroke-linecap:round;stroke-linejoin:round;stroke-opacity:1"
     id="g2162"
     transform="matrix(2.0757953,0,0,2.0757953,-63204.198,-53944.075)">
    <g
       id="g2100">
      <path
         style="fill:none;fill-opacity:0;stroke:#ffffff;stroke-width:60;stroke-linecap:round;stroke-linejoin:round;stroke-opacity:1"
         d="M 42100,35000 H 41000"
         id="path2098" />
    </g>
    <g
       style="fill:#ffffff;fill-opacity:0;stroke:#ffffff;stroke-width:100;stroke-linecap:round;stroke-linejoin:round;stroke-opacity:1"
       id="g2110">
      <path
         style="fill:none;fill-opacity:0;stroke:#ffffff;stroke-width:100;stroke-linecap:round;stroke-linejoin:round;stroke-opacity:1"
         d="M 42100,35750 V 34250"
         id="path2102" />
      <path
         style="fill:none;fill-opacity:0;stroke:#ffffff;stroke-width:100;stroke-linecap:round;stroke-linejoin:round;stroke-opacity:1"
         d="m 42300,34500 v -400"
         id="path2104" />
      <path
         style="fill:none;fill-opacity:0;stroke:#ffffff;stroke-width:100;stroke-linecap:round;stroke-linejoin:round;stroke-opacity:1"
         d="m 42300,35200 v -400"
         id="path2106" />
      <path
         style="fill:none;fill-opacity:0;stroke:#ffffff;stroke-width:100;stroke-linecap:round;stroke-linejoin:round;stroke-opacity:1"
         d="m 42300,35900 v -400"
         id="path2108" />
    </g>
    <g
       style="fill:#ffffff;fill-opacity:0;stroke:#ffffff;stroke-width:60;stroke-linecap:round;stroke-linejoin:round;stroke-opacity:1"
       id="g2118">
      <path
         style="fill:none;fill-opacity:0;stroke:#ffffff;stroke-width:60;stroke-linecap:round;stroke-linejoin:round;stroke-opacity:1"
         d="m 43000,36000 v -300"
         id="path2112" />
      <path
         style="fill:none;fill-opacity:0;stroke:#ffffff;stroke-width:60;stroke-linecap:round;stroke-linejoin:round;stroke-opacity:1"
         d="m 43000,34000 v 1000 h -700"
         id="path2114" />
      <path
         style="fill:none;fill-opacity:0;stroke:#ffffff;stroke-width:60;stroke-linecap:round;stroke-linejoin:round;stroke-opacity:1"
         d="m 42300,35700 h 1000 v -1400 h -1000"
         id="path2116" />
    </g>
    <g
       style="fill:#ffffff;fill-opacity:1;stroke:#ffffff;stroke-width:60;stroke-linecap:round;stroke-linejoin:round;stroke-opacity:1"
       id="g2122">
      <path
         style="fill:#ffffff;fill-opacity:1;fill-rule:evenodd;stroke:#ffffff;stroke-width:60;stroke-linecap:round;stroke-linejoin:round;stroke-opacity:1"
         d="m 42900,35000 -400,150 v -300 z"
         id="path2120" />
    </g>
    <g
       style="fill:#ffffff;fill-opacity:0;stroke:#ffffff;stroke-width:60;stroke-linecap:round;stroke-linejoin:round;stroke-opacity:1"
       id="g2128">
      <path
         style="fill:none;fill-opacity:0;stroke:#ffffff;stroke-width:60;stroke-linecap:round;stroke-linejoin:round;stroke-opacity:1"
         d="m 43100,34800 50,50 h 300 l 50,50"
         id="path2124" />
      <path
         style="fill:none;fill-opacity:0;stroke:#ffffff;stroke-width:60;stroke-linecap:round;stroke-linejoin:round;stroke-opacity:1"
         d="m 43300,34850 -150,250 h 300 z"
         id="path2126" />
    </g>
    <g
       style="fill:#ffffff;fill-opacity:0;stroke:#ffffff;stroke-width:100;stroke-linecap:round;stroke-linejoin:round;stroke-opacity:1"
       id="g2132">
      <circle
         cx="42650"
         cy="35000"
         r="1100"
         id="circle2130" />
    </g>
    <g
       style="fill:#ffffff;fill-opacity:1;stroke:#ffffff;stroke-width:60;stroke-linecap:round;stroke-linejoin:round;stroke-opacity:1"
       id="g2138">
      <circle
         cx="43000"
         cy="34300"
         r="100"
         id="circle2134" />
      <circle
         cx="43000"
         cy="35700"
         r="100"
         id="circle2136" />
    </g>
    <g
       style="fill:#ffffff;fill-opacity:0;stroke:#ffffff;stroke-width:60;stroke-linecap:round;stroke-linejoin:round;stroke-opacity:1"
       id="g2160">
      <path
         d="M 41000,35000 H 40000"
         id="path2140" />
      <path
         d="M 43000,34000 V 33000"
         id="path2142" />
      <path
         d="m 43000,36000 v 1000"
         id="path2144" />
      <text
         x="44581.262"
         y="34921.379"
         textLength="1060"
         font-size="666.654px"
         lengthAdjust="spacingAndGlyphs"
         text-anchor="middle"
         opacity="0"
         id="text2146">Q1</text>
      <g
         class="stroked-text"
         id="g2158">
        <desc
           id="desc2148">Q1</desc>
        <path
           d="m 44533,34945 -48,-24 -47,-48 -72,-71 -47,-24 h -48"
           id="path2150" />
        <path
           d="m 44295,34897 -48,-24 -47,-47 -24,-96 v -166 l 24,-96 47,-47 48,-24 h 95 l 48,24 47,47 24,96 v 166 l -24,96 -47,47 -48,24 h -95"
           id="path2152" />
        <path
           d="m 44985,34897 h -285"
           id="path2154" />
        <path
           d="m 44843,34897 v -500 l -48,71 -48,48 -47,24"
           id="path2156" />
      </g>
    </g>
  </g>
  <g
     style="fill:#ffffff;fill-opacity:0;stroke:#ffffff;stroke-width:60;stroke-linecap:round;stroke-linejoin:round;stroke-opacity:1"
     id="g2186"
     transform="matrix(2.0757953,0,0,2.0757953,-63204.198,-53944.075)">
    <g
       id="g2184">
      <path
         style="fill:none;fill-opacity:0;stroke:#ffffff;stroke-width:60;stroke-linecap:round;stroke-linejoin:round;stroke-opacity:1"
         d="m 52700,28500 300,-500"
         id="path2164" />
      <path
         style="fill:none;fill-opacity:0;stroke:#ffffff;stroke-width:60;stroke-linecap:round;stroke-linejoin:round;stroke-opacity:1"
         d="M 53000,29000 V 28000"
         id="path2166" />
      <path
         style="fill:none;fill-opacity:0;stroke:#ffffff;stroke-width:60;stroke-linecap:round;stroke-linejoin:round;stroke-opacity:1"
         d="m 53000,28000 300,500"
         id="path2168" />
      <text
         x="53000"
         y="27842.166"
         textLength="1583.8188"
         font-size="666.654px"
         lengthAdjust="spacingAndGlyphs"
         text-anchor="middle"
         opacity="0"
         id="text2170">+9V</text>
      <g
         class="stroked-text"
         id="g2182">
        <desc
           id="desc2172">+9V</desc>
        <path
           d="m 52357,27627 h 381"
           id="path2174" />
        <path
           d="m 52547,27818 v -381"
           id="path2176" />
        <path
           d="m 53000,27818 h 95 l 47,-24 24,-24 48,-71 24,-95 v -191 l -24,-48 -24,-23 -48,-24 h -95 l -47,24 -24,23 -24,48 v 119 l 24,48 24,24 47,23 h 95 l 48,-23 24,-24 24,-48"
           id="path2178" />
        <path
           d="m 53380,27318 167,500 167,-500"
           id="path2180" />
      </g>
    </g>
  </g>
  <g
     style="fill:#ffffff;fill-opacity:0;stroke:#ffffff;stroke-width:60;stroke-linecap:round;stroke-linejoin:round;stroke-opacity:1"
     id="g2250"
     transform="matrix(2.0757953,0,0,2.0757953,-63204.198,-53944.075)">
    <g
       id="g2190">
      <path
         style="fill:none;fill-opacity:0;stroke:#ffffff;stroke-width:60;stroke-linecap:round;stroke-linejoin:round;stroke-opacity:1"
         d="m 48000,29900 v 1100"
         id="path2188" />
    </g>
    <g
       style="fill:#ffffff;fill-opacity:0;stroke:#ffffff;stroke-width:100;stroke-linecap:round;stroke-linejoin:round;stroke-opacity:1"
       id="g2200">
      <path
         style="fill:none;fill-opacity:0;stroke:#ffffff;stroke-width:100;stroke-linecap:round;stroke-linejoin:round;stroke-opacity:1"
         d="M 48750,29900 H 47250"
         id="path2192" />
      <path
         style="fill:none;fill-opacity:0;stroke:#ffffff;stroke-width:100;stroke-linecap:round;stroke-linejoin:round;stroke-opacity:1"
         d="m 47500,29700 h -400"
         id="path2194" />
      <path
         style="fill:none;fill-opacity:0;stroke:#ffffff;stroke-width:100;stroke-linecap:round;stroke-linejoin:round;stroke-opacity:1"
         d="m 48200,29700 h -400"
         id="path2196" />
      <path
         style="fill:none;fill-opacity:0;stroke:#ffffff;stroke-width:100;stroke-linecap:round;stroke-linejoin:round;stroke-opacity:1"
         d="m 48900,29700 h -400"
         id="path2198" />
    </g>
    <g
       style="fill:#ffffff;fill-opacity:0;stroke:#ffffff;stroke-width:60;stroke-linecap:round;stroke-linejoin:round;stroke-opacity:1"
       id="g2208">
      <path
         style="fill:none;fill-opacity:0;stroke:#ffffff;stroke-width:60;stroke-linecap:round;stroke-linejoin:round;stroke-opacity:1"
         d="m 49000,29000 h -300"
         id="path2202" />
      <path
         style="fill:none;fill-opacity:0;stroke:#ffffff;stroke-width:60;stroke-linecap:round;stroke-linejoin:round;stroke-opacity:1"
         d="m 47000,29000 h 1000 v 700"
         id="path2204" />
      <path
         style="fill:none;fill-opacity:0;stroke:#ffffff;stroke-width:60;stroke-linecap:round;stroke-linejoin:round;stroke-opacity:1"
         d="m 48700,29700 v -1000 h -1400 v 1000"
         id="path2206" />
    </g>
    <g
       style="fill:#ffffff;fill-opacity:1;stroke:#ffffff;stroke-width:60;stroke-linecap:round;stroke-linejoin:round;stroke-opacity:1"
       id="g2212">
      <path
         style="fill:#ffffff;fill-opacity:1;fill-rule:evenodd;stroke:#ffffff;stroke-width:60;stroke-linecap:round;stroke-linejoin:round;stroke-opacity:1"
         d="m 48000,29100 150,400 h -300 z"
         id="path2210" />
    </g>
    <g
       style="fill:#ffffff;fill-opacity:0;stroke:#ffffff;stroke-width:60;stroke-linecap:round;stroke-linejoin:round;stroke-opacity:1"
       id="g2218">
      <path
         style="fill:none;fill-opacity:0;stroke:#ffffff;stroke-width:60;stroke-linecap:round;stroke-linejoin:round;stroke-opacity:1"
         d="m 47800,28900 50,-50 v -300 l 50,-50"
         id="path2214" />
      <path
         style="fill:none;fill-opacity:0;stroke:#ffffff;stroke-width:60;stroke-linecap:round;stroke-linejoin:round;stroke-opacity:1"
         d="m 47850,28700 250,150 v -300 z"
         id="path2216" />
    </g>
    <g
       style="fill:#ffffff;fill-opacity:0;stroke:#ffffff;stroke-width:100;stroke-linecap:round;stroke-linejoin:round;stroke-opacity:1"
       id="g2222">
      <circle
         cx="48000"
         cy="29350"
         r="1100"
         id="circle2220" />
    </g>
    <g
       style="fill:#ffffff;fill-opacity:1;stroke:#ffffff;stroke-width:60;stroke-linecap:round;stroke-linejoin:round;stroke-opacity:1"
       id="g2228">
      <circle
         cx="47300"
         cy="29000"
         r="100"
         id="circle2224" />
      <circle
         cx="48700"
         cy="29000"
         r="100"
         id="circle2226" />
    </g>
    <g
       style="fill:#ffffff;fill-opacity:0;stroke:#ffffff;stroke-width:60;stroke-linecap:round;stroke-linejoin:round;stroke-opacity:1"
       id="g2248">
      <path
         d="m 48000,31000 v 1000"
         id="path2230" />
      <path
         d="M 47000,29000 H 46000"
         id="path2232" />
      <path
         d="m 49000,29000 h 1000"
         id="path2234" />
      <text
         x="48000"
         y="27043.387"
         textLength="1060"
         font-size="666.654px"
         lengthAdjust="spacingAndGlyphs"
         text-anchor="middle"
         opacity="0"
         id="text2236">Q2</text>
      <g
         class="stroked-text"
         id="g2246">
        <desc
           id="desc2238">Q2</desc>
        <path
           d="m 47952,27067 -48,-24 -47,-48 -72,-71 -47,-24 h -48"
           id="path2240" />
        <path
           d="m 47714,27019 -48,-24 -47,-47 -24,-96 v -166 l 24,-96 47,-47 48,-24 h 95 l 48,24 47,47 24,96 v 166 l -24,96 -47,47 -48,24 h -95"
           id="path2242" />
        <path
           d="m 48119,26567 23,-24 48,-24 h 119 l 48,24 23,24 24,47 v 48 l -24,71 -285,286 h 309"
           id="path2244" />
      </g>
    </g>
  </g>
  <g
     style="fill:#ffffff;fill-opacity:0;stroke:#ffffff;stroke-width:60;stroke-linecap:round;stroke-linejoin:round;stroke-opacity:1"
     id="g2288"
     transform="matrix(2.0757953,0,0,2.0757953,-63204.198,-53944.075)">
    <path
       d="m 32000,37000 v 4000"
       id="path2252" />
    <path
       d="m 36500,35000 v 2500"
       id="path2254" />
    <path
       d="m 36500,40500 v 500"
       id="path2256" />
    <path
       d="m 32000,41000 h 4500"
       id="path2258" />
    <path
       d="m 36500,29000 v 1500"
       id="path2260" />
    <path
       d="M 32000,33000 V 29000"
       id="path2262" />
    <path
       d="m 32000,29000 h 4500"
       id="path2264" />
    <path
       d="m 36500,33500 v 1500"
       id="path2266" />
    <path
       d="m 48000,40500 v 500"
       id="path2268" />
    <path
       d="M 36500,41000 H 48000"
       id="path2270" />
    <path
       d="m 48000,37000 v 500"
       id="path2272" />
    <path
       d="m 36500,29000 h 6500"
       id="path2274" />
    <path
       d="m 36500,35000 h 3500"
       id="path2276" />
    <path
       d="M 43000,33000 V 29000"
       id="path2278" />
    <path
       d="m 48000,32000 v 5000"
       id="path2280" />
    <path
       d="m 43000,37000 h 5000"
       id="path2282" />
    <path
       d="m 43000,29000 h 3000"
       id="path2284" />
    <path
       d="m 50000,29000 h 3000"
       id="path2286" />
  </g>
  <g
     style="fill:#ffffff;fill-opacity:1;stroke:#ffffff;stroke-width:60;stroke-linecap:round;stroke-linejoin:round;stroke-opacity:1"
     id="g2302"
     transform="matrix(2.0757953,0,0,2.0757953,-63204.198,-53944.075)">
    <circle
       cx="36500"
       cy="41000"
       r="180"
       id="circle2290" />
    <circle
       cx="36500"
       cy="29000"
       r="180"
       id="circle2292" />
    <circle
       cx="36500"
       cy="35000"
       r="180"
       id="circle2294" />
    <circle
       cx="48000"
       cy="41000"
       r="180"
       id="circle2296" />
    <circle
       cx="48000"
       cy="37000"
       r="180"
       id="circle2298" />
    <circle
       cx="43000"
       cy="29000"
       r="180"
       id="circle2300" />
  </g>
  <metadata
     id="metadata2367">
    <rdf:RDF>
      <cc:Work
         rdf:about="">
        <dc:title>SVG Picture created as Schematic.svg date 2022/11/27 13:01:21 </dc:title>
      </cc:Work>
    </rdf:RDF>
  </metadata>
</svg>
